<?xml version="1.0" encoding="UTF-8" standalone="no"?>
<!DOCTYPE svg PUBLIC "-//W3C//DTD SVG 1.1//EN"
 "http://www.w3.org/Graphics/SVG/1.1/DTD/svg11.dtd">
<!-- Generated by graphviz version 2.47.0 (20210316.0004)
 -->
<!-- Title: dependencies Pages: 1 -->
<svg width="1109pt" height="284pt"
 viewBox="0.00 0.00 1109.00 284.00" xmlns="http://www.w3.org/2000/svg" xmlns:xlink="http://www.w3.org/1999/xlink">
<g id="graph0" class="graph" transform="scale(1 1) rotate(0) translate(4 280)">
<title>dependencies</title>
<polygon fill="white" stroke="transparent" points="-4,4 -4,-280 1105,-280 1105,4 -4,4"/>
<text text-anchor="start" x="529.51" y="-42.4" font-family="Times-12" font-weight="bold" font-size="14.00">Legend</text>
<polygon fill="#ffffb3" stroke="transparent" points="316.5,-10 316.5,-30 336.5,-30 336.5,-10 316.5,-10"/>
<text text-anchor="start" x="340.13" y="-15.4" font-family="Times-12" font-size="14.00"> &#160;Declarations</text>
<polygon fill="#8dd3c7" stroke="transparent" points="429.5,-10 429.5,-30 449.5,-30 449.5,-10 429.5,-10"/>
<text text-anchor="start" x="453.23" y="-15.4" font-family="Times-12" font-size="14.00"> &#160;Module</text>
<polygon fill="#80b1d3" stroke="transparent" points="515.5,-10 515.5,-30 535.5,-30 535.5,-10 515.5,-10"/>
<text text-anchor="start" x="539.28" y="-15.4" font-family="Times-12" font-size="14.00"> &#160;Bootstrap</text>
<polygon fill="#fdb462" stroke="transparent" points="612.5,-10 612.5,-30 632.5,-30 632.5,-10 612.5,-10"/>
<text text-anchor="start" x="636.17" y="-15.4" font-family="Times-12" font-size="14.00"> &#160;Providers</text>
<polygon fill="#fb8072" stroke="transparent" points="708.5,-10 708.5,-30 728.5,-30 728.5,-10 708.5,-10"/>
<text text-anchor="start" x="732.23" y="-15.4" font-family="Times-12" font-size="14.00"> &#160;Exports</text>
<g id="clust1" class="cluster">
<title>cluster_AreaModule</title>
<polygon fill="none" stroke="black" stroke-dasharray="1,5" points="8,-70 8,-268 1093,-268 1093,-70 8,-70"/>
</g>
<g id="clust4" class="cluster">
<title>cluster_AreaModule_exports</title>
<polygon fill="none" stroke="black" points="403,-208 403,-260 775,-260 775,-208 403,-208"/>
</g>
<g id="clust3" class="cluster">
<title>cluster_AreaModule_imports</title>
<polygon fill="none" stroke="black" points="505,-78 505,-130 1085,-130 1085,-78 505,-78"/>
</g>
<g id="clust6" class="cluster">
<title>cluster_AreaModule_providers</title>
<polygon fill="none" stroke="black" points="16,-78 16,-130 497,-130 497,-78 16,-78"/>
</g>
<!-- ActionRegistryModule -->
<g id="node1" class="node">
<title>ActionRegistryModule</title>
<polygon fill="#8dd3c7" stroke="black" points="1076.59,-122 1073.59,-126 1052.59,-126 1049.59,-122 931.41,-122 931.41,-86 1076.59,-86 1076.59,-122"/>
<text text-anchor="middle" x="1004" y="-99.8" font-family="Times,serif" font-size="14.00">ActionRegistryModule</text>
</g>
<!-- AreaModule -->
<g id="node5" class="node">
<title>AreaModule</title>
<polygon fill="#8dd3c7" stroke="black" points="607.25,-187 604.25,-191 583.25,-191 580.25,-187 520.75,-187 520.75,-151 607.25,-151 607.25,-187"/>
<text text-anchor="middle" x="564" y="-164.8" font-family="Times,serif" font-size="14.00">AreaModule</text>
</g>
<!-- ActionRegistryModule&#45;&gt;AreaModule -->
<g id="edge1" class="edge">
<title>ActionRegistryModule&#45;&gt;AreaModule</title>
<path fill="none" stroke="black" d="M1004,-122.13C1004,-142.57 1004,-173 1004,-173 1004,-173 617.39,-173 617.39,-173"/>
<polygon fill="black" stroke="black" points="617.39,-169.5 607.39,-173 617.39,-176.5 617.39,-169.5"/>
</g>
<!-- ElementModule -->
<g id="node2" class="node">
<title>ElementModule</title>
<polygon fill="#8dd3c7" stroke="black" points="913.2,-122 910.2,-126 889.2,-126 886.2,-122 806.8,-122 806.8,-86 913.2,-86 913.2,-122"/>
<text text-anchor="middle" x="860" y="-99.8" font-family="Times,serif" font-size="14.00">ElementModule</text>
</g>
<!-- ElementModule&#45;&gt;AreaModule -->
<g id="edge2" class="edge">
<title>ElementModule&#45;&gt;AreaModule</title>
<path fill="none" stroke="black" d="M860,-122.27C860,-140.56 860,-166 860,-166 860,-166 617.36,-166 617.36,-166"/>
<polygon fill="black" stroke="black" points="617.36,-162.5 607.36,-166 617.36,-169.5 617.36,-162.5"/>
</g>
<!-- ReactionRegistryModule -->
<g id="node3" class="node">
<title>ReactionRegistryModule</title>
<polygon fill="#8dd3c7" stroke="black" points="789.25,-122 786.25,-126 765.25,-126 762.25,-122 632.75,-122 632.75,-86 789.25,-86 789.25,-122"/>
<text text-anchor="middle" x="711" y="-99.8" font-family="Times,serif" font-size="14.00">ReactionRegistryModule</text>
</g>
<!-- ReactionRegistryModule&#45;&gt;AreaModule -->
<g id="edge3" class="edge">
<title>ReactionRegistryModule&#45;&gt;AreaModule</title>
<path fill="none" stroke="black" d="M677.49,-122.01C677.49,-138.05 677.49,-159 677.49,-159 677.49,-159 617.55,-159 617.55,-159"/>
<polygon fill="black" stroke="black" points="617.55,-155.5 607.55,-159 617.55,-162.5 617.55,-155.5"/>
</g>
<!-- ServiceModule -->
<g id="node4" class="node">
<title>ServiceModule</title>
<polygon fill="#8dd3c7" stroke="black" points="614.53,-122 611.53,-126 590.53,-126 587.53,-122 513.47,-122 513.47,-86 614.53,-86 614.53,-122"/>
<text text-anchor="middle" x="564" y="-99.8" font-family="Times,serif" font-size="14.00">ServiceModule</text>
</g>
<!-- ServiceModule&#45;&gt;AreaModule -->
<g id="edge4" class="edge">
<title>ServiceModule&#45;&gt;AreaModule</title>
<path fill="none" stroke="black" d="M564,-122.11C564,-122.11 564,-140.99 564,-140.99"/>
<polygon fill="black" stroke="black" points="560.5,-140.99 564,-150.99 567.5,-140.99 560.5,-140.99"/>
</g>
<!-- AreaReactionService  -->
<g id="node6" class="node">
<title>AreaReactionService </title>
<polygon fill="#fb8072" stroke="black" points="767.44,-252 628.56,-252 628.56,-216 767.44,-216 767.44,-252"/>
<text text-anchor="middle" x="698" y="-229.8" font-family="Times,serif" font-size="14.00">AreaReactionService </text>
</g>
<!-- AreaModule&#45;&gt;AreaReactionService  -->
<g id="edge5" class="edge">
<title>AreaModule&#45;&gt;AreaReactionService </title>
<path fill="none" stroke="black" stroke-dasharray="5,2" d="M607.27,-180C654.16,-180 722.35,-180 722.35,-180 722.35,-180 722.35,-205.72 722.35,-205.72"/>
<polygon fill="black" stroke="black" points="718.85,-205.72 722.35,-215.72 725.85,-205.72 718.85,-205.72"/>
</g>
<!-- AreaRegistry  -->
<g id="node7" class="node">
<title>AreaRegistry </title>
<polygon fill="#fb8072" stroke="black" points="611.13,-252 516.87,-252 516.87,-216 611.13,-216 611.13,-252"/>
<text text-anchor="middle" x="564" y="-229.8" font-family="Times,serif" font-size="14.00">AreaRegistry </text>
</g>
<!-- AreaModule&#45;&gt;AreaRegistry  -->
<g id="edge6" class="edge">
<title>AreaModule&#45;&gt;AreaRegistry </title>
<path fill="none" stroke="black" stroke-dasharray="5,2" d="M564,-187.11C564,-187.11 564,-205.99 564,-205.99"/>
<polygon fill="black" stroke="black" points="560.5,-205.99 564,-215.99 567.5,-205.99 560.5,-205.99"/>
</g>
<!-- AreaService  -->
<g id="node8" class="node">
<title>AreaService </title>
<polygon fill="#fb8072" stroke="black" points="499.17,-252 410.83,-252 410.83,-216 499.17,-216 499.17,-252"/>
<text text-anchor="middle" x="455" y="-229.8" font-family="Times,serif" font-size="14.00">AreaService </text>
</g>
<!-- AreaModule&#45;&gt;AreaService  -->
<g id="edge7" class="edge">
<title>AreaModule&#45;&gt;AreaService </title>
<path fill="none" stroke="black" stroke-dasharray="5,2" d="M520.59,-180C506.4,-180 494.21,-180 494.21,-180 494.21,-180 494.21,-205.72 494.21,-205.72"/>
<polygon fill="black" stroke="black" points="490.71,-205.72 494.21,-215.72 497.71,-205.72 490.71,-205.72"/>
</g>
<!-- AreaReactionService -->
<g id="node9" class="node">
<title>AreaReactionService</title>
<ellipse fill="#fdb462" stroke="black" cx="396" cy="-104" rx="93.15" ry="18"/>
<text text-anchor="middle" x="396" y="-99.8" font-family="Times,serif" font-size="14.00">AreaReactionService</text>
</g>
<!-- AreaReactionService&#45;&gt;AreaModule -->
<g id="edge8" class="edge">
<title>AreaReactionService&#45;&gt;AreaModule</title>
<path fill="none" stroke="black" d="M449.87,-118.74C449.87,-135.03 449.87,-159 449.87,-159 449.87,-159 510.53,-159 510.53,-159"/>
<polygon fill="black" stroke="black" points="510.53,-162.5 520.53,-159 510.53,-155.5 510.53,-162.5"/>
</g>
<!-- AreaRegistry -->
<g id="node10" class="node">
<title>AreaRegistry</title>
<ellipse fill="#fdb462" stroke="black" cx="222" cy="-104" rx="62.54" ry="18"/>
<text text-anchor="middle" x="222" y="-99.8" font-family="Times,serif" font-size="14.00">AreaRegistry</text>
</g>
<!-- AreaRegistry&#45;&gt;AreaModule -->
<g id="edge9" class="edge">
<title>AreaRegistry&#45;&gt;AreaModule</title>
<path fill="none" stroke="black" d="M222,-122.27C222,-140.56 222,-166 222,-166 222,-166 510.69,-166 510.69,-166"/>
<polygon fill="black" stroke="black" points="510.69,-169.5 520.69,-166 510.69,-162.5 510.69,-169.5"/>
</g>
<!-- AreaService -->
<g id="node11" class="node">
<title>AreaService</title>
<ellipse fill="#fdb462" stroke="black" cx="83" cy="-104" rx="58.5" ry="18"/>
<text text-anchor="middle" x="83" y="-99.8" font-family="Times,serif" font-size="14.00">AreaService</text>
</g>
<!-- AreaService&#45;&gt;AreaModule -->
<g id="edge10" class="edge">
<title>AreaService&#45;&gt;AreaModule</title>
<path fill="none" stroke="black" d="M83,-122.13C83,-142.57 83,-173 83,-173 83,-173 510.47,-173 510.47,-173"/>
<polygon fill="black" stroke="black" points="510.47,-176.5 520.47,-173 510.47,-169.5 510.47,-176.5"/>
</g>
</g>
</svg>
