<?xml version="1.0" encoding="UTF-8" standalone="no"?>
<!DOCTYPE svg PUBLIC "-//W3C//DTD SVG 1.1//EN"
 "http://www.w3.org/Graphics/SVG/1.1/DTD/svg11.dtd">
<!-- Generated by graphviz version 2.47.0 (20210316.0004)
 -->
<!-- Title: dependencies Pages: 1 -->
<svg width="1820pt" height="284pt"
 viewBox="0.00 0.00 1820.00 284.00" xmlns="http://www.w3.org/2000/svg" xmlns:xlink="http://www.w3.org/1999/xlink">
<g id="graph0" class="graph" transform="scale(1 1) rotate(0) translate(4 280)">
<title>dependencies</title>
<polygon fill="white" stroke="transparent" points="-4,4 -4,-280 1816,-280 1816,4 -4,4"/>
<text text-anchor="start" x="885.01" y="-42.4" font-family="Times-12" font-weight="bold" font-size="14.00">Legend</text>
<polygon fill="#ffffb3" stroke="transparent" points="672,-10 672,-30 692,-30 692,-10 672,-10"/>
<text text-anchor="start" x="695.63" y="-15.4" font-family="Times-12" font-size="14.00"> &#160;Declarations</text>
<polygon fill="#8dd3c7" stroke="transparent" points="785,-10 785,-30 805,-30 805,-10 785,-10"/>
<text text-anchor="start" x="808.73" y="-15.4" font-family="Times-12" font-size="14.00"> &#160;Module</text>
<polygon fill="#80b1d3" stroke="transparent" points="871,-10 871,-30 891,-30 891,-10 871,-10"/>
<text text-anchor="start" x="894.78" y="-15.4" font-family="Times-12" font-size="14.00"> &#160;Bootstrap</text>
<polygon fill="#fdb462" stroke="transparent" points="968,-10 968,-30 988,-30 988,-10 968,-10"/>
<text text-anchor="start" x="991.67" y="-15.4" font-family="Times-12" font-size="14.00"> &#160;Providers</text>
<polygon fill="#fb8072" stroke="transparent" points="1064,-10 1064,-30 1084,-30 1084,-10 1064,-10"/>
<text text-anchor="start" x="1087.73" y="-15.4" font-family="Times-12" font-size="14.00"> &#160;Exports</text>
<g id="clust1" class="cluster">
<title>cluster_AuthModule</title>
<polygon fill="none" stroke="black" stroke-dasharray="1,5" points="8,-70 8,-268 1804,-268 1804,-70 8,-70"/>
</g>
<g id="clust3" class="cluster">
<title>cluster_AuthModule_imports</title>
<polygon fill="none" stroke="black" points="1574,-78 1574,-130 1796,-130 1796,-78 1574,-78"/>
</g>
<g id="clust4" class="cluster">
<title>cluster_AuthModule_exports</title>
<polygon fill="none" stroke="black" points="904,-208 904,-260 1010,-260 1010,-208 904,-208"/>
</g>
<g id="clust6" class="cluster">
<title>cluster_AuthModule_providers</title>
<polygon fill="none" stroke="black" points="16,-78 16,-130 1566,-130 1566,-78 16,-78"/>
</g>
<!-- ServiceModule -->
<g id="node1" class="node">
<title>ServiceModule</title>
<polygon fill="#8dd3c7" stroke="black" points="1787.53,-122 1784.53,-126 1763.53,-126 1760.53,-122 1686.47,-122 1686.47,-86 1787.53,-86 1787.53,-122"/>
<text text-anchor="middle" x="1737" y="-99.8" font-family="Times,serif" font-size="14.00">ServiceModule</text>
</g>
<!-- AuthModule -->
<g id="node3" class="node">
<title>AuthModule</title>
<polygon fill="#8dd3c7" stroke="black" points="1000.55,-187 997.55,-191 976.55,-191 973.55,-187 913.45,-187 913.45,-151 1000.55,-151 1000.55,-187"/>
<text text-anchor="middle" x="957" y="-164.8" font-family="Times,serif" font-size="14.00">AuthModule</text>
</g>
<!-- ServiceModule&#45;&gt;AuthModule -->
<g id="edge1" class="edge">
<title>ServiceModule&#45;&gt;AuthModule</title>
<path fill="none" stroke="black" d="M1737,-122.25C1737,-145.02 1737,-181 1737,-181 1737,-181 1010.61,-181 1010.61,-181"/>
<polygon fill="black" stroke="black" points="1010.61,-177.5 1000.61,-181 1010.61,-184.5 1010.61,-177.5"/>
</g>
<!-- UserModule -->
<g id="node2" class="node">
<title>UserModule</title>
<polygon fill="#8dd3c7" stroke="black" points="1667.98,-122 1664.98,-126 1643.98,-126 1640.98,-122 1582.02,-122 1582.02,-86 1667.98,-86 1667.98,-122"/>
<text text-anchor="middle" x="1625" y="-99.8" font-family="Times,serif" font-size="14.00">UserModule</text>
</g>
<!-- UserModule&#45;&gt;AuthModule -->
<g id="edge2" class="edge">
<title>UserModule&#45;&gt;AuthModule</title>
<path fill="none" stroke="black" d="M1625,-122.28C1625,-143.32 1625,-175 1625,-175 1625,-175 1010.57,-175 1010.57,-175"/>
<polygon fill="black" stroke="black" points="1010.57,-171.5 1000.57,-175 1010.57,-178.5 1010.57,-171.5"/>
</g>
<!-- AuthService  -->
<g id="node4" class="node">
<title>AuthService </title>
<polygon fill="#fb8072" stroke="black" points="1001.98,-252 912.02,-252 912.02,-216 1001.98,-216 1001.98,-252"/>
<text text-anchor="middle" x="957" y="-229.8" font-family="Times,serif" font-size="14.00">AuthService </text>
</g>
<!-- AuthModule&#45;&gt;AuthService  -->
<g id="edge3" class="edge">
<title>AuthModule&#45;&gt;AuthService </title>
<path fill="none" stroke="black" stroke-dasharray="5,2" d="M957,-187.11C957,-187.11 957,-205.99 957,-205.99"/>
<polygon fill="black" stroke="black" points="953.5,-205.99 957,-215.99 960.5,-205.99 953.5,-205.99"/>
</g>
<!-- AuthService -->
<g id="node5" class="node">
<title>AuthService</title>
<ellipse fill="#fdb462" stroke="black" cx="1499" cy="-104" rx="59.11" ry="18"/>
<text text-anchor="middle" x="1499" y="-99.8" font-family="Times,serif" font-size="14.00">AuthService</text>
</g>
<!-- AuthService&#45;&gt;AuthModule -->
<g id="edge4" class="edge">
<title>AuthService&#45;&gt;AuthModule</title>
<path fill="none" stroke="black" d="M1499,-122.11C1499,-141.34 1499,-169 1499,-169 1499,-169 1010.9,-169 1010.9,-169"/>
<polygon fill="black" stroke="black" points="1010.9,-165.5 1000.9,-169 1010.89,-172.5 1010.9,-165.5"/>
</g>
<!-- ElementService -->
<g id="node6" class="node">
<title>ElementService</title>
<ellipse fill="#fdb462" stroke="black" cx="1350" cy="-104" rx="72.35" ry="18"/>
<text text-anchor="middle" x="1350" y="-99.8" font-family="Times,serif" font-size="14.00">ElementService</text>
</g>
<!-- ElementService&#45;&gt;AuthModule -->
<g id="edge5" class="edge">
<title>ElementService&#45;&gt;AuthModule</title>
<path fill="none" stroke="black" d="M1350,-122.02C1350,-139.37 1350,-163 1350,-163 1350,-163 1010.56,-163 1010.56,-163"/>
<polygon fill="black" stroke="black" points="1010.56,-159.5 1000.56,-163 1010.56,-166.5 1010.56,-159.5"/>
</g>
<!-- GithubStrategy -->
<g id="node7" class="node">
<title>GithubStrategy</title>
<ellipse fill="#fdb462" stroke="black" cx="1190" cy="-104" rx="70.08" ry="18"/>
<text text-anchor="middle" x="1190" y="-99.8" font-family="Times,serif" font-size="14.00">GithubStrategy</text>
</g>
<!-- GithubStrategy&#45;&gt;AuthModule -->
<g id="edge6" class="edge">
<title>GithubStrategy&#45;&gt;AuthModule</title>
<path fill="none" stroke="black" d="M1190,-122.24C1190,-137.57 1190,-157 1190,-157 1190,-157 1010.55,-157 1010.55,-157"/>
<polygon fill="black" stroke="black" points="1010.55,-153.5 1000.55,-157 1010.55,-160.5 1010.55,-153.5"/>
</g>
<!-- GoogleStrategy -->
<g id="node8" class="node">
<title>GoogleStrategy</title>
<ellipse fill="#fdb462" stroke="black" cx="1030" cy="-104" rx="71.79" ry="18"/>
<text text-anchor="middle" x="1030" y="-99.8" font-family="Times,serif" font-size="14.00">GoogleStrategy</text>
</g>
<!-- GoogleStrategy&#45;&gt;AuthModule -->
<g id="edge7" class="edge">
<title>GoogleStrategy&#45;&gt;AuthModule</title>
<path fill="none" stroke="black" d="M979.56,-116.84C979.56,-116.84 979.56,-140.52 979.56,-140.52"/>
<polygon fill="black" stroke="black" points="976.06,-140.52 979.56,-150.52 983.06,-140.52 976.06,-140.52"/>
</g>
<!-- JwtStrategy -->
<g id="node9" class="node">
<title>JwtStrategy</title>
<ellipse fill="#fdb462" stroke="black" cx="884" cy="-104" rx="56.76" ry="18"/>
<text text-anchor="middle" x="884" y="-99.8" font-family="Times,serif" font-size="14.00">JwtStrategy</text>
</g>
<!-- JwtStrategy&#45;&gt;AuthModule -->
<g id="edge8" class="edge">
<title>JwtStrategy&#45;&gt;AuthModule</title>
<path fill="none" stroke="black" d="M926.93,-115.92C926.93,-115.92 926.93,-140.77 926.93,-140.77"/>
<polygon fill="black" stroke="black" points="923.43,-140.77 926.93,-150.77 930.43,-140.77 923.43,-140.77"/>
</g>
<!-- LocalStrategy -->
<g id="node10" class="node">
<title>LocalStrategy</title>
<ellipse fill="#fdb462" stroke="black" cx="744" cy="-104" rx="65.41" ry="18"/>
<text text-anchor="middle" x="744" y="-99.8" font-family="Times,serif" font-size="14.00">LocalStrategy</text>
</g>
<!-- LocalStrategy&#45;&gt;AuthModule -->
<g id="edge9" class="edge">
<title>LocalStrategy&#45;&gt;AuthModule</title>
<path fill="none" stroke="black" d="M744,-122.24C744,-137.57 744,-157 744,-157 744,-157 903.38,-157 903.38,-157"/>
<polygon fill="black" stroke="black" points="903.38,-160.5 913.38,-157 903.38,-153.5 903.38,-160.5"/>
</g>
<!-- MsStrategy -->
<g id="node11" class="node">
<title>MsStrategy</title>
<ellipse fill="#fdb462" stroke="black" cx="605" cy="-104" rx="55.61" ry="18"/>
<text text-anchor="middle" x="605" y="-99.8" font-family="Times,serif" font-size="14.00">MsStrategy</text>
</g>
<!-- MsStrategy&#45;&gt;AuthModule -->
<g id="edge10" class="edge">
<title>MsStrategy&#45;&gt;AuthModule</title>
<path fill="none" stroke="black" d="M605,-122.02C605,-139.37 605,-163 605,-163 605,-163 903.13,-163 903.13,-163"/>
<polygon fill="black" stroke="black" points="903.13,-166.5 913.13,-163 903.13,-159.5 903.13,-166.5"/>
</g>
<!-- ServiceTokenService -->
<g id="node12" class="node">
<title>ServiceTokenService</title>
<ellipse fill="#fdb462" stroke="black" cx="438" cy="-104" rx="93.74" ry="18"/>
<text text-anchor="middle" x="438" y="-99.8" font-family="Times,serif" font-size="14.00">ServiceTokenService</text>
</g>
<!-- ServiceTokenService&#45;&gt;AuthModule -->
<g id="edge11" class="edge">
<title>ServiceTokenService&#45;&gt;AuthModule</title>
<path fill="none" stroke="black" d="M438,-122.11C438,-141.34 438,-169 438,-169 438,-169 903.2,-169 903.2,-169"/>
<polygon fill="black" stroke="black" points="903.2,-172.5 913.2,-169 903.2,-165.5 903.2,-172.5"/>
</g>
<!-- SpotifyStrategy -->
<g id="node13" class="node">
<title>SpotifyStrategy</title>
<ellipse fill="#fdb462" stroke="black" cx="255" cy="-104" rx="71.81" ry="18"/>
<text text-anchor="middle" x="255" y="-99.8" font-family="Times,serif" font-size="14.00">SpotifyStrategy</text>
</g>
<!-- SpotifyStrategy&#45;&gt;AuthModule -->
<g id="edge12" class="edge">
<title>SpotifyStrategy&#45;&gt;AuthModule</title>
<path fill="none" stroke="black" d="M255,-122.28C255,-143.32 255,-175 255,-175 255,-175 903.35,-175 903.35,-175"/>
<polygon fill="black" stroke="black" points="903.35,-178.5 913.35,-175 903.35,-171.5 903.35,-178.5"/>
</g>
<!-- TwitchStrategy -->
<g id="node14" class="node">
<title>TwitchStrategy</title>
<ellipse fill="#fdb462" stroke="black" cx="95" cy="-104" rx="70.64" ry="18"/>
<text text-anchor="middle" x="95" y="-99.8" font-family="Times,serif" font-size="14.00">TwitchStrategy</text>
</g>
<!-- TwitchStrategy&#45;&gt;AuthModule -->
<g id="edge13" class="edge">
<title>TwitchStrategy&#45;&gt;AuthModule</title>
<path fill="none" stroke="black" d="M95,-122.25C95,-145.02 95,-181 95,-181 95,-181 903.37,-181 903.37,-181"/>
<polygon fill="black" stroke="black" points="903.37,-184.5 913.37,-181 903.37,-177.5 903.37,-184.5"/>
</g>
</g>
</svg>
