<?xml version="1.0" encoding="UTF-8" standalone="no"?>
<!DOCTYPE svg PUBLIC "-//W3C//DTD SVG 1.1//EN"
 "http://www.w3.org/Graphics/SVG/1.1/DTD/svg11.dtd">
<!-- Generated by graphviz version 2.47.0 (20210316.0004)
 -->
<!-- Title: dependencies Pages: 1 -->
<svg width="504pt" height="284pt"
 viewBox="0.00 0.00 504.00 284.00" xmlns="http://www.w3.org/2000/svg" xmlns:xlink="http://www.w3.org/1999/xlink">
<g id="graph0" class="graph" transform="scale(1 1) rotate(0) translate(4 280)">
<title>dependencies</title>
<polygon fill="white" stroke="transparent" points="-4,4 -4,-280 500,-280 500,4 -4,4"/>
<text text-anchor="start" x="227.01" y="-42.4" font-family="Times-12" font-weight="bold" font-size="14.00">Legend</text>
<polygon fill="#ffffb3" stroke="transparent" points="14,-10 14,-30 34,-30 34,-10 14,-10"/>
<text text-anchor="start" x="37.63" y="-15.4" font-family="Times-12" font-size="14.00"> &#160;Declarations</text>
<polygon fill="#8dd3c7" stroke="transparent" points="127,-10 127,-30 147,-30 147,-10 127,-10"/>
<text text-anchor="start" x="150.73" y="-15.4" font-family="Times-12" font-size="14.00"> &#160;Module</text>
<polygon fill="#80b1d3" stroke="transparent" points="213,-10 213,-30 233,-30 233,-10 213,-10"/>
<text text-anchor="start" x="236.78" y="-15.4" font-family="Times-12" font-size="14.00"> &#160;Bootstrap</text>
<polygon fill="#fdb462" stroke="transparent" points="310,-10 310,-30 330,-30 330,-10 310,-10"/>
<text text-anchor="start" x="333.67" y="-15.4" font-family="Times-12" font-size="14.00"> &#160;Providers</text>
<polygon fill="#fb8072" stroke="transparent" points="406,-10 406,-30 426,-30 426,-10 406,-10"/>
<text text-anchor="start" x="429.73" y="-15.4" font-family="Times-12" font-size="14.00"> &#160;Exports</text>
<g id="clust1" class="cluster">
<title>cluster_ActionRegistryModule</title>
<polygon fill="none" stroke="black" stroke-dasharray="1,5" points="97,-70 97,-268 399,-268 399,-70 97,-70"/>
</g>
<g id="clust3" class="cluster">
<title>cluster_ActionRegistryModule_imports</title>
<polygon fill="none" stroke="black" points="269,-78 269,-130 391,-130 391,-78 269,-78"/>
</g>
<g id="clust4" class="cluster">
<title>cluster_ActionRegistryModule_exports</title>
<polygon fill="none" stroke="black" points="189,-208 189,-260 311,-260 311,-208 189,-208"/>
</g>
<g id="clust6" class="cluster">
<title>cluster_ActionRegistryModule_providers</title>
<polygon fill="none" stroke="black" points="105,-78 105,-130 261,-130 261,-78 105,-78"/>
</g>
<!-- ElementModule -->
<g id="node1" class="node">
<title>ElementModule</title>
<polygon fill="#8dd3c7" stroke="black" points="383.2,-122 380.2,-126 359.2,-126 356.2,-122 276.8,-122 276.8,-86 383.2,-86 383.2,-122"/>
<text text-anchor="middle" x="330" y="-99.8" font-family="Times,serif" font-size="14.00">ElementModule</text>
</g>
<!-- ActionRegistryModule -->
<g id="node2" class="node">
<title>ActionRegistryModule</title>
<polygon fill="#8dd3c7" stroke="black" points="322.59,-187 319.59,-191 298.59,-191 295.59,-187 177.41,-187 177.41,-151 322.59,-151 322.59,-187"/>
<text text-anchor="middle" x="250" y="-164.8" font-family="Times,serif" font-size="14.00">ActionRegistryModule</text>
</g>
<!-- ElementModule&#45;&gt;ActionRegistryModule -->
<g id="edge1" class="edge">
<title>ElementModule&#45;&gt;ActionRegistryModule</title>
<path fill="none" stroke="black" d="M299.72,-122.11C299.72,-122.11 299.72,-140.99 299.72,-140.99"/>
<polygon fill="black" stroke="black" points="296.22,-140.99 299.72,-150.99 303.22,-140.99 296.22,-140.99"/>
</g>
<!-- ActionRegistry  -->
<g id="node3" class="node">
<title>ActionRegistry </title>
<polygon fill="#fb8072" stroke="black" points="302.54,-252 197.46,-252 197.46,-216 302.54,-216 302.54,-252"/>
<text text-anchor="middle" x="250" y="-229.8" font-family="Times,serif" font-size="14.00">ActionRegistry </text>
</g>
<!-- ActionRegistryModule&#45;&gt;ActionRegistry  -->
<g id="edge2" class="edge">
<title>ActionRegistryModule&#45;&gt;ActionRegistry </title>
<path fill="none" stroke="black" stroke-dasharray="5,2" d="M250,-187.11C250,-187.11 250,-205.99 250,-205.99"/>
<polygon fill="black" stroke="black" points="246.5,-205.99 250,-215.99 253.5,-205.99 246.5,-205.99"/>
</g>
<!-- ActionRegistry -->
<g id="node4" class="node">
<title>ActionRegistry</title>
<ellipse fill="#fdb462" stroke="black" cx="183" cy="-104" rx="70.08" ry="18"/>
<text text-anchor="middle" x="183" y="-99.8" font-family="Times,serif" font-size="14.00">ActionRegistry</text>
</g>
<!-- ActionRegistry&#45;&gt;ActionRegistryModule -->
<g id="edge3" class="edge">
<title>ActionRegistry&#45;&gt;ActionRegistryModule</title>
<path fill="none" stroke="black" d="M215.25,-120.07C215.25,-120.07 215.25,-140.82 215.25,-140.82"/>
<polygon fill="black" stroke="black" points="211.75,-140.82 215.25,-150.82 218.75,-140.82 211.75,-140.82"/>
</g>
</g>
</svg>
