<?xml version="1.0" encoding="UTF-8" standalone="no"?>
<!DOCTYPE svg PUBLIC "-//W3C//DTD SVG 1.1//EN"
 "http://www.w3.org/Graphics/SVG/1.1/DTD/svg11.dtd">
<!-- Generated by graphviz version 2.47.0 (20210316.0004)
 -->
<!-- Title: dependencies Pages: 1 -->
<svg width="855pt" height="211pt"
 viewBox="0.00 0.00 855.00 211.00" xmlns="http://www.w3.org/2000/svg" xmlns:xlink="http://www.w3.org/1999/xlink">
<g id="graph0" class="graph" transform="scale(1 1) rotate(0) translate(4 207)">
<title>dependencies</title>
<polygon fill="white" stroke="transparent" points="-4,4 -4,-207 851,-207 851,4 -4,4"/>
<text text-anchor="start" x="402.51" y="-42.4" font-family="Times-12" font-weight="bold" font-size="14.00">Legend</text>
<polygon fill="#ffffb3" stroke="transparent" points="189.5,-10 189.5,-30 209.5,-30 209.5,-10 189.5,-10"/>
<text text-anchor="start" x="213.13" y="-15.4" font-family="Times-12" font-size="14.00"> &#160;Declarations</text>
<polygon fill="#8dd3c7" stroke="transparent" points="302.5,-10 302.5,-30 322.5,-30 322.5,-10 302.5,-10"/>
<text text-anchor="start" x="326.23" y="-15.4" font-family="Times-12" font-size="14.00"> &#160;Module</text>
<polygon fill="#80b1d3" stroke="transparent" points="388.5,-10 388.5,-30 408.5,-30 408.5,-10 388.5,-10"/>
<text text-anchor="start" x="412.28" y="-15.4" font-family="Times-12" font-size="14.00"> &#160;Bootstrap</text>
<polygon fill="#fdb462" stroke="transparent" points="485.5,-10 485.5,-30 505.5,-30 505.5,-10 485.5,-10"/>
<text text-anchor="start" x="509.17" y="-15.4" font-family="Times-12" font-size="14.00"> &#160;Providers</text>
<polygon fill="#fb8072" stroke="transparent" points="581.5,-10 581.5,-30 601.5,-30 601.5,-10 581.5,-10"/>
<text text-anchor="start" x="605.23" y="-15.4" font-family="Times-12" font-size="14.00"> &#160;Exports</text>
<g id="clust1" class="cluster">
<title>cluster_AppModule</title>
<polygon fill="none" stroke="black" stroke-dasharray="1,5" points="8,-70 8,-195 839,-195 839,-70 8,-70"/>
</g>
<g id="clust6" class="cluster">
<title>cluster_AppModule_providers</title>
<polygon fill="none" stroke="black" points="701,-78 701,-130 831,-130 831,-78 701,-78"/>
</g>
<g id="clust3" class="cluster">
<title>cluster_AppModule_imports</title>
<polygon fill="none" stroke="black" points="16,-78 16,-130 693,-130 693,-78 16,-78"/>
</g>
<!-- AreaModule -->
<g id="node1" class="node">
<title>AreaModule</title>
<polygon fill="#8dd3c7" stroke="black" points="685.25,-122 682.25,-126 661.25,-126 658.25,-122 598.75,-122 598.75,-86 685.25,-86 685.25,-122"/>
<text text-anchor="middle" x="642" y="-99.8" font-family="Times,serif" font-size="14.00">AreaModule</text>
</g>
<!-- AppModule -->
<g id="node7" class="node">
<title>AppModule</title>
<polygon fill="#8dd3c7" stroke="black" points="464.66,-187 461.66,-191 440.66,-191 437.66,-187 381.34,-187 381.34,-151 464.66,-151 464.66,-187"/>
<text text-anchor="middle" x="423" y="-164.8" font-family="Times,serif" font-size="14.00">AppModule</text>
</g>
<!-- AreaModule&#45;&gt;AppModule -->
<g id="edge1" class="edge">
<title>AreaModule&#45;&gt;AppModule</title>
<path fill="none" stroke="black" d="M642,-122.11C642,-141.34 642,-169 642,-169 642,-169 474.71,-169 474.71,-169"/>
<polygon fill="black" stroke="black" points="474.71,-165.5 464.71,-169 474.71,-172.5 474.71,-165.5"/>
</g>
<!-- AuthModule -->
<g id="node2" class="node">
<title>AuthModule</title>
<polygon fill="#8dd3c7" stroke="black" points="580.55,-122 577.55,-126 556.55,-126 553.55,-122 493.45,-122 493.45,-86 580.55,-86 580.55,-122"/>
<text text-anchor="middle" x="537" y="-99.8" font-family="Times,serif" font-size="14.00">AuthModule</text>
</g>
<!-- AuthModule&#45;&gt;AppModule -->
<g id="edge2" class="edge">
<title>AuthModule&#45;&gt;AppModule</title>
<path fill="none" stroke="black" d="M537,-122.03C537,-138.4 537,-160 537,-160 537,-160 474.8,-160 474.8,-160"/>
<polygon fill="black" stroke="black" points="474.8,-156.5 464.8,-160 474.8,-163.5 474.8,-156.5"/>
</g>
<!-- ConfigsModule -->
<g id="node3" class="node">
<title>ConfigsModule</title>
<polygon fill="#8dd3c7" stroke="black" points="474.88,-122 471.88,-126 450.88,-126 447.88,-122 371.12,-122 371.12,-86 474.88,-86 474.88,-122"/>
<text text-anchor="middle" x="423" y="-99.8" font-family="Times,serif" font-size="14.00">ConfigsModule</text>
</g>
<!-- ConfigsModule&#45;&gt;AppModule -->
<g id="edge3" class="edge">
<title>ConfigsModule&#45;&gt;AppModule</title>
<path fill="none" stroke="black" d="M423,-122.11C423,-122.11 423,-140.99 423,-140.99"/>
<polygon fill="black" stroke="black" points="419.5,-140.99 423,-150.99 426.5,-140.99 419.5,-140.99"/>
</g>
<!-- ElementModule -->
<g id="node4" class="node">
<title>ElementModule</title>
<polygon fill="#8dd3c7" stroke="black" points="353.2,-122 350.2,-126 329.2,-126 326.2,-122 246.8,-122 246.8,-86 353.2,-86 353.2,-122"/>
<text text-anchor="middle" x="300" y="-99.8" font-family="Times,serif" font-size="14.00">ElementModule</text>
</g>
<!-- ElementModule&#45;&gt;AppModule -->
<g id="edge4" class="edge">
<title>ElementModule&#45;&gt;AppModule</title>
<path fill="none" stroke="black" d="M300,-122.03C300,-138.4 300,-160 300,-160 300,-160 371.01,-160 371.01,-160"/>
<polygon fill="black" stroke="black" points="371.01,-163.5 381.01,-160 371.01,-156.5 371.01,-163.5"/>
</g>
<!-- OrmModule -->
<g id="node5" class="node">
<title>OrmModule</title>
<polygon fill="#8dd3c7" stroke="black" points="228.71,-122 225.71,-126 204.71,-126 201.71,-122 143.29,-122 143.29,-86 228.71,-86 228.71,-122"/>
<text text-anchor="middle" x="186" y="-99.8" font-family="Times,serif" font-size="14.00">OrmModule</text>
</g>
<!-- OrmModule&#45;&gt;AppModule -->
<g id="edge5" class="edge">
<title>OrmModule&#45;&gt;AppModule</title>
<path fill="none" stroke="black" d="M186,-122.11C186,-141.34 186,-169 186,-169 186,-169 371.17,-169 371.17,-169"/>
<polygon fill="black" stroke="black" points="371.17,-172.5 381.17,-169 371.17,-165.5 371.17,-172.5"/>
</g>
<!-- ServiceModule -->
<g id="node6" class="node">
<title>ServiceModule</title>
<polygon fill="#8dd3c7" stroke="black" points="125.53,-122 122.53,-126 101.53,-126 98.53,-122 24.47,-122 24.47,-86 125.53,-86 125.53,-122"/>
<text text-anchor="middle" x="75" y="-99.8" font-family="Times,serif" font-size="14.00">ServiceModule</text>
</g>
<!-- ServiceModule&#45;&gt;AppModule -->
<g id="edge6" class="edge">
<title>ServiceModule&#45;&gt;AppModule</title>
<path fill="none" stroke="black" d="M75,-122.29C75,-144.21 75,-178 75,-178 75,-178 371.02,-178 371.02,-178"/>
<polygon fill="black" stroke="black" points="371.02,-181.5 381.02,-178 371.02,-174.5 371.02,-181.5"/>
</g>
<!-- AppService -->
<g id="node8" class="node">
<title>AppService</title>
<ellipse fill="#fdb462" stroke="black" cx="766" cy="-104" rx="56.74" ry="18"/>
<text text-anchor="middle" x="766" y="-99.8" font-family="Times,serif" font-size="14.00">AppService</text>
</g>
<!-- AppService&#45;&gt;AppModule -->
<g id="edge7" class="edge">
<title>AppService&#45;&gt;AppModule</title>
<path fill="none" stroke="black" d="M766,-122.29C766,-144.21 766,-178 766,-178 766,-178 474.72,-178 474.72,-178"/>
<polygon fill="black" stroke="black" points="474.72,-174.5 464.72,-178 474.72,-181.5 474.72,-174.5"/>
</g>
</g>
</svg>
