<?xml version="1.0" encoding="UTF-8" standalone="no"?>
<!DOCTYPE svg PUBLIC "-//W3C//DTD SVG 1.1//EN"
 "http://www.w3.org/Graphics/SVG/1.1/DTD/svg11.dtd">
<!-- Generated by graphviz version 2.47.0 (20210316.0004)
 -->
<!-- Title: dependencies Pages: 1 -->
<svg width="504pt" height="284pt"
 viewBox="0.00 0.00 504.00 284.00" xmlns="http://www.w3.org/2000/svg" xmlns:xlink="http://www.w3.org/1999/xlink">
<g id="graph0" class="graph" transform="scale(1 1) rotate(0) translate(4 280)">
<title>dependencies</title>
<polygon fill="white" stroke="transparent" points="-4,4 -4,-280 500,-280 500,4 -4,4"/>
<text text-anchor="start" x="227.01" y="-42.4" font-family="Times-12" font-weight="bold" font-size="14.00">Legend</text>
<polygon fill="#ffffb3" stroke="transparent" points="14,-10 14,-30 34,-30 34,-10 14,-10"/>
<text text-anchor="start" x="37.63" y="-15.4" font-family="Times-12" font-size="14.00"> &#160;Declarations</text>
<polygon fill="#8dd3c7" stroke="transparent" points="127,-10 127,-30 147,-30 147,-10 127,-10"/>
<text text-anchor="start" x="150.73" y="-15.4" font-family="Times-12" font-size="14.00"> &#160;Module</text>
<polygon fill="#80b1d3" stroke="transparent" points="213,-10 213,-30 233,-30 233,-10 213,-10"/>
<text text-anchor="start" x="236.78" y="-15.4" font-family="Times-12" font-size="14.00"> &#160;Bootstrap</text>
<polygon fill="#fdb462" stroke="transparent" points="310,-10 310,-30 330,-30 330,-10 310,-10"/>
<text text-anchor="start" x="333.67" y="-15.4" font-family="Times-12" font-size="14.00"> &#160;Providers</text>
<polygon fill="#fb8072" stroke="transparent" points="406,-10 406,-30 426,-30 426,-10 406,-10"/>
<text text-anchor="start" x="429.73" y="-15.4" font-family="Times-12" font-size="14.00"> &#160;Exports</text>
<g id="clust1" class="cluster">
<title>cluster_ReactionRegistryModule</title>
<polygon fill="none" stroke="black" stroke-dasharray="1,5" points="89,-70 89,-268 407,-268 407,-70 89,-70"/>
</g>
<g id="clust3" class="cluster">
<title>cluster_ReactionRegistryModule_imports</title>
<polygon fill="none" stroke="black" points="277,-78 277,-130 399,-130 399,-78 277,-78"/>
</g>
<g id="clust4" class="cluster">
<title>cluster_ReactionRegistryModule_exports</title>
<polygon fill="none" stroke="black" points="186,-208 186,-260 318,-260 318,-208 186,-208"/>
</g>
<g id="clust6" class="cluster">
<title>cluster_ReactionRegistryModule_providers</title>
<polygon fill="none" stroke="black" points="97,-78 97,-130 269,-130 269,-78 97,-78"/>
</g>
<!-- ElementModule -->
<g id="node1" class="node">
<title>ElementModule</title>
<polygon fill="#8dd3c7" stroke="black" points="391.2,-122 388.2,-126 367.2,-126 364.2,-122 284.8,-122 284.8,-86 391.2,-86 391.2,-122"/>
<text text-anchor="middle" x="338" y="-99.8" font-family="Times,serif" font-size="14.00">ElementModule</text>
</g>
<!-- ReactionRegistryModule -->
<g id="node2" class="node">
<title>ReactionRegistryModule</title>
<polygon fill="#8dd3c7" stroke="black" points="330.25,-187 327.25,-191 306.25,-191 303.25,-187 173.75,-187 173.75,-151 330.25,-151 330.25,-187"/>
<text text-anchor="middle" x="252" y="-164.8" font-family="Times,serif" font-size="14.00">ReactionRegistryModule</text>
</g>
<!-- ElementModule&#45;&gt;ReactionRegistryModule -->
<g id="edge1" class="edge">
<title>ElementModule&#45;&gt;ReactionRegistryModule</title>
<path fill="none" stroke="black" d="M307.64,-122.11C307.64,-122.11 307.64,-140.99 307.64,-140.99"/>
<polygon fill="black" stroke="black" points="304.14,-140.99 307.64,-150.99 311.14,-140.99 304.14,-140.99"/>
</g>
<!-- ReactionRegistry  -->
<g id="node3" class="node">
<title>ReactionRegistry </title>
<polygon fill="#fb8072" stroke="black" points="310.2,-252 193.8,-252 193.8,-216 310.2,-216 310.2,-252"/>
<text text-anchor="middle" x="252" y="-229.8" font-family="Times,serif" font-size="14.00">ReactionRegistry </text>
</g>
<!-- ReactionRegistryModule&#45;&gt;ReactionRegistry  -->
<g id="edge2" class="edge">
<title>ReactionRegistryModule&#45;&gt;ReactionRegistry </title>
<path fill="none" stroke="black" stroke-dasharray="5,2" d="M252,-187.11C252,-187.11 252,-205.99 252,-205.99"/>
<polygon fill="black" stroke="black" points="248.5,-205.99 252,-215.99 255.5,-205.99 248.5,-205.99"/>
</g>
<!-- ReactionRegistry -->
<g id="node4" class="node">
<title>ReactionRegistry</title>
<ellipse fill="#fdb462" stroke="black" cx="183" cy="-104" rx="78.17" ry="18"/>
<text text-anchor="middle" x="183" y="-99.8" font-family="Times,serif" font-size="14.00">ReactionRegistry</text>
</g>
<!-- ReactionRegistry&#45;&gt;ReactionRegistryModule -->
<g id="edge3" class="edge">
<title>ReactionRegistry&#45;&gt;ReactionRegistryModule</title>
<path fill="none" stroke="black" d="M217.35,-120.4C217.35,-120.4 217.35,-140.54 217.35,-140.54"/>
<polygon fill="black" stroke="black" points="213.85,-140.54 217.35,-150.54 220.85,-140.54 213.85,-140.54"/>
</g>
</g>
</svg>
