<?xml version="1.0" encoding="UTF-8" standalone="no"?>
<!DOCTYPE svg PUBLIC "-//W3C//DTD SVG 1.1//EN"
 "http://www.w3.org/Graphics/SVG/1.1/DTD/svg11.dtd">
<!-- Generated by graphviz version 2.47.0 (20210316.0004)
 -->
<!-- Title: dependencies Pages: 1 -->
<svg width="4869pt" height="355pt"
 viewBox="0.00 0.00 4869.00 355.00" xmlns="http://www.w3.org/2000/svg" xmlns:xlink="http://www.w3.org/1999/xlink">
<g id="graph0" class="graph" transform="scale(1 1) rotate(0) translate(4 351)">
<title>dependencies</title>
<polygon fill="white" stroke="transparent" points="-4,4 -4,-351 4865,-351 4865,4 -4,4"/>
<text text-anchor="start" x="2409.51" y="-42.4" font-family="Times-12" font-weight="bold" font-size="14.00">Legend</text>
<polygon fill="#ffffb3" stroke="transparent" points="2196.5,-10 2196.5,-30 2216.5,-30 2216.5,-10 2196.5,-10"/>
<text text-anchor="start" x="2220.13" y="-15.4" font-family="Times-12" font-size="14.00"> &#160;Declarations</text>
<polygon fill="#8dd3c7" stroke="transparent" points="2309.5,-10 2309.5,-30 2329.5,-30 2329.5,-10 2309.5,-10"/>
<text text-anchor="start" x="2333.23" y="-15.4" font-family="Times-12" font-size="14.00"> &#160;Module</text>
<polygon fill="#80b1d3" stroke="transparent" points="2395.5,-10 2395.5,-30 2415.5,-30 2415.5,-10 2395.5,-10"/>
<text text-anchor="start" x="2419.28" y="-15.4" font-family="Times-12" font-size="14.00"> &#160;Bootstrap</text>
<polygon fill="#fdb462" stroke="transparent" points="2492.5,-10 2492.5,-30 2512.5,-30 2512.5,-10 2492.5,-10"/>
<text text-anchor="start" x="2516.17" y="-15.4" font-family="Times-12" font-size="14.00"> &#160;Providers</text>
<polygon fill="#fb8072" stroke="transparent" points="2588.5,-10 2588.5,-30 2608.5,-30 2608.5,-10 2588.5,-10"/>
<text text-anchor="start" x="2612.23" y="-15.4" font-family="Times-12" font-size="14.00"> &#160;Exports</text>
<g id="clust1" class="cluster">
<title>cluster_ActionRegistryModule</title>
<polygon fill="none" stroke="black" stroke-dasharray="1,5" points="156,-70 156,-282 458,-282 458,-70 156,-70"/>
</g>
<g id="clust3" class="cluster">
<title>cluster_ActionRegistryModule_imports</title>
<polygon fill="none" stroke="black" points="328,-78 328,-130 450,-130 450,-78 328,-78"/>
</g>
<g id="clust4" class="cluster">
<title>cluster_ActionRegistryModule_exports</title>
<polygon fill="none" stroke="black" points="316,-222 316,-274 438,-274 438,-222 316,-222"/>
</g>
<g id="clust6" class="cluster">
<title>cluster_ActionRegistryModule_providers</title>
<polygon fill="none" stroke="black" points="164,-78 164,-130 320,-130 320,-78 164,-78"/>
</g>
<g id="clust7" class="cluster">
<title>cluster_AppModule</title>
<polygon fill="none" stroke="black" stroke-dasharray="1,5" points="1875,-146 1875,-339 2372,-339 2372,-146 1875,-146"/>
</g>
<g id="clust9" class="cluster">
<title>cluster_AppModule_imports</title>
<polygon fill="none" stroke="black" points="2021,-154 2021,-274 2364,-274 2364,-154 2021,-154"/>
</g>
<g id="clust12" class="cluster">
<title>cluster_AppModule_providers</title>
<polygon fill="none" stroke="black" points="1883,-222 1883,-274 2013,-274 2013,-222 1883,-222"/>
</g>
<g id="clust13" class="cluster">
<title>cluster_AreaModule</title>
<polygon fill="none" stroke="black" stroke-dasharray="1,5" points="809,-146 809,-214 1867,-214 1867,-146 809,-146"/>
</g>
<g id="clust15" class="cluster">
<title>cluster_AreaModule_imports</title>
<polygon fill="none" stroke="black" points="1687,-154 1687,-206 1859,-206 1859,-154 1687,-154"/>
</g>
<g id="clust16" class="cluster">
<title>cluster_AreaModule_exports</title>
<polygon fill="none" stroke="black" points="1306,-154 1306,-206 1679,-206 1679,-154 1306,-154"/>
</g>
<g id="clust18" class="cluster">
<title>cluster_AreaModule_providers</title>
<polygon fill="none" stroke="black" points="817,-154 817,-206 1298,-206 1298,-154 817,-154"/>
</g>
<g id="clust19" class="cluster">
<title>cluster_AuthModule</title>
<polygon fill="none" stroke="black" stroke-dasharray="1,5" points="3063,-70 3063,-138 4853,-138 4853,-70 3063,-70"/>
</g>
<g id="clust21" class="cluster">
<title>cluster_AuthModule_imports</title>
<polygon fill="none" stroke="black" points="3185,-78 3185,-130 3287,-130 3287,-78 3185,-78"/>
</g>
<g id="clust22" class="cluster">
<title>cluster_AuthModule_exports</title>
<polygon fill="none" stroke="black" points="3071,-78 3071,-130 3177,-130 3177,-78 3071,-78"/>
</g>
<g id="clust24" class="cluster">
<title>cluster_AuthModule_providers</title>
<polygon fill="none" stroke="black" points="3295,-78 3295,-130 4845,-130 4845,-78 3295,-78"/>
</g>
<g id="clust31" class="cluster">
<title>cluster_ElementModule</title>
<polygon fill="none" stroke="black" stroke-dasharray="1,5" points="8,-146 8,-214 148,-214 148,-146 8,-146"/>
</g>
<g id="clust34" class="cluster">
<title>cluster_ElementModule_exports</title>
<polygon fill="none" stroke="black" points="16,-154 16,-206 140,-206 140,-154 16,-154"/>
</g>
<g id="clust43" class="cluster">
<title>cluster_ReactionRegistryModule</title>
<polygon fill="none" stroke="black" stroke-dasharray="1,5" points="466,-70 466,-138 794,-138 794,-70 466,-70"/>
</g>
<g id="clust46" class="cluster">
<title>cluster_ReactionRegistryModule_exports</title>
<polygon fill="none" stroke="black" points="654,-78 654,-130 786,-130 786,-78 654,-78"/>
</g>
<g id="clust48" class="cluster">
<title>cluster_ReactionRegistryModule_providers</title>
<polygon fill="none" stroke="black" points="474,-78 474,-130 646,-130 646,-78 474,-78"/>
</g>
<g id="clust49" class="cluster">
<title>cluster_ServiceModule</title>
<polygon fill="none" stroke="black" stroke-dasharray="1,5" points="802,-70 802,-138 3055,-138 3055,-70 802,-70"/>
</g>
<g id="clust52" class="cluster">
<title>cluster_ServiceModule_exports</title>
<polygon fill="none" stroke="black" points="2636,-78 2636,-130 3047,-130 3047,-78 2636,-78"/>
</g>
<g id="clust54" class="cluster">
<title>cluster_ServiceModule_providers</title>
<polygon fill="none" stroke="black" points="810,-78 810,-130 2628,-130 2628,-78 810,-78"/>
</g>
<g id="clust55" class="cluster">
<title>cluster_UserModule</title>
<polygon fill="none" stroke="black" stroke-dasharray="1,5" points="3099,-146 3099,-214 3359,-214 3359,-146 3099,-146"/>
</g>
<g id="clust58" class="cluster">
<title>cluster_UserModule_exports</title>
<polygon fill="none" stroke="black" points="3247,-154 3247,-206 3351,-206 3351,-154 3247,-154"/>
</g>
<g id="clust60" class="cluster">
<title>cluster_UserModule_providers</title>
<polygon fill="none" stroke="black" points="3107,-154 3107,-206 3239,-206 3239,-154 3107,-154"/>
</g>
<!-- ElementModule -->
<g id="node1" class="node">
<title>ElementModule</title>
<polygon fill="#8dd3c7" stroke="black" points="442.2,-122 439.2,-126 418.2,-126 415.2,-122 335.8,-122 335.8,-86 442.2,-86 442.2,-122"/>
<text text-anchor="middle" x="389" y="-99.8" font-family="Times,serif" font-size="14.00">ElementModule</text>
</g>
<!-- ActionRegistryModule -->
<g id="node2" class="node">
<title>ActionRegistryModule</title>
<polygon fill="#8dd3c7" stroke="black" points="449.59,-198 446.59,-202 425.59,-202 422.59,-198 304.41,-198 304.41,-162 449.59,-162 449.59,-198"/>
<text text-anchor="middle" x="377" y="-175.8" font-family="Times,serif" font-size="14.00">ActionRegistryModule</text>
</g>
<!-- ElementModule&#45;&gt;ActionRegistryModule -->
<g id="edge1" class="edge">
<title>ElementModule&#45;&gt;ActionRegistryModule</title>
<path fill="none" stroke="black" d="M362.45,-122.01C362.45,-122.01 362.45,-151.85 362.45,-151.85"/>
<polygon fill="black" stroke="black" points="358.95,-151.85 362.45,-161.85 365.95,-151.85 358.95,-151.85"/>
</g>
<!-- AreaModule -->
<g id="node5" class="node">
<title>AreaModule</title>
<polygon fill="#8dd3c7" stroke="black" points="2169.25,-266 2166.25,-270 2145.25,-270 2142.25,-266 2082.75,-266 2082.75,-230 2169.25,-230 2169.25,-266"/>
<text text-anchor="middle" x="2126" y="-243.8" font-family="Times,serif" font-size="14.00">AreaModule</text>
</g>
<!-- ElementModule&#45;&gt;AreaModule -->
<g id="edge12" class="edge">
<title>ElementModule&#45;&gt;AreaModule</title>
<path fill="none" stroke="black" d="M402.28,-122.05C402.28,-136.37 402.28,-154 402.28,-154 402.28,-154 2142.17,-154 2142.17,-154 2142.17,-154 2142.17,-219.88 2142.17,-219.88"/>
<polygon fill="black" stroke="black" points="2138.67,-219.88 2142.17,-229.88 2145.67,-219.88 2138.67,-219.88"/>
</g>
<!-- ServiceModule -->
<g id="node9" class="node">
<title>ServiceModule</title>
<polygon fill="#8dd3c7" stroke="black" points="2355.53,-198 2352.53,-202 2331.53,-202 2328.53,-198 2254.47,-198 2254.47,-162 2355.53,-162 2355.53,-198"/>
<text text-anchor="middle" x="2305" y="-175.8" font-family="Times,serif" font-size="14.00">ServiceModule</text>
</g>
<!-- ElementModule&#45;&gt;ServiceModule -->
<g id="edge40" class="edge">
<title>ElementModule&#45;&gt;ServiceModule</title>
<path fill="none" stroke="black" d="M415.55,-122.15C415.55,-135.74 415.55,-152 415.55,-152 415.55,-152 2261.49,-152 2261.49,-152 2261.49,-152 2261.49,-152.98 2261.49,-152.98"/>
<polygon fill="black" stroke="black" points="2257.99,-151.79 2261.49,-161.79 2264.99,-151.79 2257.99,-151.79"/>
</g>
<!-- ElementModule&#45;&gt;ServiceModule -->
<g id="edge41" class="edge">
<title>ElementModule&#45;&gt;ServiceModule</title>
<path fill="none" stroke="black" d="M428.83,-122.18C428.83,-135.04 428.83,-150 428.83,-150 428.83,-150 2268.74,-150 2268.74,-150 2268.74,-150 2268.74,-151.86 2268.74,-151.86"/>
<polygon fill="black" stroke="black" points="2265.24,-151.86 2268.74,-161.86 2272.24,-151.86 2265.24,-151.86"/>
</g>
<!-- AppModule -->
<g id="node10" class="node">
<title>AppModule</title>
<polygon fill="#8dd3c7" stroke="black" points="2085.66,-331 2082.66,-335 2061.66,-335 2058.66,-331 2002.34,-331 2002.34,-295 2085.66,-295 2085.66,-331"/>
<text text-anchor="middle" x="2044" y="-308.8" font-family="Times,serif" font-size="14.00">AppModule</text>
</g>
<!-- ElementModule&#45;&gt;AppModule -->
<g id="edge7" class="edge">
<title>ElementModule&#45;&gt;AppModule</title>
<path fill="none" stroke="black" d="M442.29,-104C455.39,-104 465.73,-104 465.73,-104 465.73,-104 465.73,-313 465.73,-313 465.73,-313 1992.19,-313 1992.19,-313"/>
<polygon fill="black" stroke="black" points="1992.19,-316.5 2002.19,-313 1992.19,-309.5 1992.19,-316.5"/>
</g>
<!-- ReactionRegistryModule -->
<g id="node12" class="node">
<title>ReactionRegistryModule</title>
<polygon fill="#8dd3c7" stroke="black" points="1851.25,-198 1848.25,-202 1827.25,-202 1824.25,-198 1694.75,-198 1694.75,-162 1851.25,-162 1851.25,-198"/>
<text text-anchor="middle" x="1773" y="-175.8" font-family="Times,serif" font-size="14.00">ReactionRegistryModule</text>
</g>
<!-- ElementModule&#45;&gt;ReactionRegistryModule -->
<g id="edge36" class="edge">
<title>ElementModule&#45;&gt;ReactionRegistryModule</title>
<path fill="none" stroke="black" d="M389,-122.03C389,-138.4 389,-160 389,-160 389,-160 1700.84,-160 1700.84,-160 1700.84,-160 1700.84,-160.18 1700.84,-160.18"/>
<polygon fill="black" stroke="black" points="1697.34,-151.85 1700.84,-161.85 1704.34,-151.85 1697.34,-151.85"/>
</g>
<!-- ElementService  -->
<g id="node31" class="node">
<title>ElementService </title>
<polygon fill="#fb8072" stroke="black" points="132.13,-198 23.87,-198 23.87,-162 132.13,-162 132.13,-198"/>
<text text-anchor="middle" x="78" y="-175.8" font-family="Times,serif" font-size="14.00">ElementService </text>
</g>
<!-- ElementModule&#45;&gt;ElementService  -->
<g id="edge34" class="edge">
<title>ElementModule&#45;&gt;ElementService </title>
<path fill="none" stroke="black" stroke-dasharray="5,2" d="M349.17,-122.16C349.17,-127.04 349.17,-131 349.17,-131 349.17,-131 78,-131 78,-131 78,-131 78,-151.75 78,-151.75"/>
<polygon fill="black" stroke="black" points="74.5,-151.75 78,-161.75 81.5,-151.75 74.5,-151.75"/>
</g>
<!-- ActionRegistry  -->
<g id="node3" class="node">
<title>ActionRegistry </title>
<polygon fill="#fb8072" stroke="black" points="429.54,-266 324.46,-266 324.46,-230 429.54,-230 429.54,-266"/>
<text text-anchor="middle" x="377" y="-243.8" font-family="Times,serif" font-size="14.00">ActionRegistry </text>
</g>
<!-- ActionRegistryModule&#45;&gt;ActionRegistry  -->
<g id="edge2" class="edge">
<title>ActionRegistryModule&#45;&gt;ActionRegistry </title>
<path fill="none" stroke="black" stroke-dasharray="5,2" d="M377,-198.22C377,-198.22 377,-219.73 377,-219.73"/>
<polygon fill="black" stroke="black" points="373.5,-219.73 377,-229.73 380.5,-219.73 373.5,-219.73"/>
</g>
<!-- ActionRegistryModule&#45;&gt;AreaModule -->
<g id="edge11" class="edge">
<title>ActionRegistryModule&#45;&gt;AreaModule</title>
<path fill="none" stroke="black" d="M436.19,-198.04C436.19,-211.29 436.19,-227 436.19,-227 436.19,-227 2088.92,-227 2088.92,-227 2088.92,-227 2088.92,-227.29 2088.92,-227.29"/>
<polygon fill="black" stroke="black" points="2085.42,-219.92 2088.92,-229.92 2092.42,-219.92 2085.42,-219.92"/>
</g>
<!-- ActionRegistryModule&#45;&gt;ServiceModule -->
<g id="edge39" class="edge">
<title>ActionRegistryModule&#45;&gt;ServiceModule</title>
<path fill="none" stroke="black" d="M442.87,-198.17C442.87,-202.05 442.87,-205 442.87,-205 442.87,-205 2259.83,-205 2259.83,-205 2259.83,-205 2259.83,-204.32 2259.83,-204.32"/>
<polygon fill="black" stroke="black" points="2263.33,-208.17 2259.83,-198.17 2256.33,-208.17 2263.33,-208.17"/>
</g>
<!-- ActionRegistry -->
<g id="node4" class="node">
<title>ActionRegistry</title>
<ellipse fill="#fdb462" stroke="black" cx="242" cy="-104" rx="70.08" ry="18"/>
<text text-anchor="middle" x="242" y="-99.8" font-family="Times,serif" font-size="14.00">ActionRegistry</text>
</g>
<!-- ActionRegistry&#45;&gt;ActionRegistryModule -->
<g id="edge3" class="edge">
<title>ActionRegistry&#45;&gt;ActionRegistryModule</title>
<path fill="none" stroke="black" d="M308.25,-109.96C308.25,-109.96 308.25,-151.93 308.25,-151.93"/>
<polygon fill="black" stroke="black" points="304.75,-151.93 308.25,-161.93 311.75,-151.93 304.75,-151.93"/>
</g>
<!-- AreaModule&#45;&gt;AppModule -->
<g id="edge4" class="edge">
<title>AreaModule&#45;&gt;AppModule</title>
<path fill="none" stroke="black" d="M2082.48,-257C2072.51,-257 2064.77,-257 2064.77,-257 2064.77,-257 2064.77,-284.97 2064.77,-284.97"/>
<polygon fill="black" stroke="black" points="2061.27,-284.97 2064.77,-294.97 2068.27,-284.97 2061.27,-284.97"/>
</g>
<!-- AreaReactionService  -->
<g id="node13" class="node">
<title>AreaReactionService </title>
<polygon fill="#fb8072" stroke="black" points="1452.44,-198 1313.56,-198 1313.56,-162 1452.44,-162 1452.44,-198"/>
<text text-anchor="middle" x="1383" y="-175.8" font-family="Times,serif" font-size="14.00">AreaReactionService </text>
</g>
<!-- AreaModule&#45;&gt;AreaReactionService  -->
<g id="edge15" class="edge">
<title>AreaModule&#45;&gt;AreaReactionService </title>
<path fill="none" stroke="black" stroke-dasharray="5,2" d="M2114.07,-229.81C2114.07,-221.72 2114.07,-214 2114.07,-214 2114.07,-214 1383,-214 1383,-214 1383,-214 1383,-208.19 1383,-208.19"/>
<polygon fill="black" stroke="black" points="1386.5,-208.19 1383,-198.19 1379.5,-208.19 1386.5,-208.19"/>
</g>
<!-- AreaRegistry  -->
<g id="node14" class="node">
<title>AreaRegistry </title>
<polygon fill="#fb8072" stroke="black" points="1671.13,-198 1576.87,-198 1576.87,-162 1671.13,-162 1671.13,-198"/>
<text text-anchor="middle" x="1624" y="-175.8" font-family="Times,serif" font-size="14.00">AreaRegistry </text>
</g>
<!-- AreaModule&#45;&gt;AreaRegistry  -->
<g id="edge16" class="edge">
<title>AreaModule&#45;&gt;AreaRegistry </title>
<path fill="none" stroke="black" stroke-dasharray="5,2" d="M2126.65,-229.87C2126.65,-219.29 2126.65,-208 2126.65,-208 2126.65,-208 1624,-208 1624,-208 1624,-208 1624,-207.02 1624,-207.02"/>
<polygon fill="black" stroke="black" points="1627.5,-208.21 1624,-198.21 1620.5,-208.21 1627.5,-208.21"/>
</g>
<!-- AreaService  -->
<g id="node15" class="node">
<title>AreaService </title>
<polygon fill="#fb8072" stroke="black" points="1559.17,-198 1470.83,-198 1470.83,-162 1559.17,-162 1559.17,-198"/>
<text text-anchor="middle" x="1515" y="-175.8" font-family="Times,serif" font-size="14.00">AreaService </text>
</g>
<!-- AreaModule&#45;&gt;AreaService  -->
<g id="edge17" class="edge">
<title>AreaModule&#45;&gt;AreaService </title>
<path fill="none" stroke="black" stroke-dasharray="5,2" d="M2120.36,-229.93C2120.36,-220.54 2120.36,-211 2120.36,-211 2120.36,-211 1515,-211 1515,-211 1515,-211 1515,-208.03 1515,-208.03"/>
<polygon fill="black" stroke="black" points="1518.5,-208.03 1515,-198.03 1511.5,-208.03 1518.5,-208.03"/>
</g>
<!-- AuthModule -->
<g id="node6" class="node">
<title>AuthModule</title>
<polygon fill="#8dd3c7" stroke="black" points="2355.55,-266 2352.55,-270 2331.55,-270 2328.55,-266 2268.45,-266 2268.45,-230 2355.55,-230 2355.55,-266"/>
<text text-anchor="middle" x="2312" y="-243.8" font-family="Times,serif" font-size="14.00">AuthModule</text>
</g>
<!-- AuthModule&#45;&gt;AppModule -->
<g id="edge5" class="edge">
<title>AuthModule&#45;&gt;AppModule</title>
<path fill="none" stroke="black" d="M2312,-266.29C2312,-288.21 2312,-322 2312,-322 2312,-322 2095.88,-322 2095.88,-322"/>
<polygon fill="black" stroke="black" points="2095.88,-318.5 2085.88,-322 2095.87,-325.5 2095.88,-318.5"/>
</g>
<!-- AuthService  -->
<g id="node20" class="node">
<title>AuthService </title>
<polygon fill="#fb8072" stroke="black" points="3168.98,-122 3079.02,-122 3079.02,-86 3168.98,-86 3168.98,-122"/>
<text text-anchor="middle" x="3124" y="-99.8" font-family="Times,serif" font-size="14.00">AuthService </text>
</g>
<!-- AuthModule&#45;&gt;AuthService  -->
<g id="edge23" class="edge">
<title>AuthModule&#45;&gt;AuthService </title>
<path fill="none" stroke="black" stroke-dasharray="5,2" d="M2355.61,-233C2520.55,-233 3097.02,-233 3097.02,-233 3097.02,-233 3097.02,-132.21 3097.02,-132.21"/>
<polygon fill="black" stroke="black" points="3100.52,-132.21 3097.02,-122.21 3093.52,-132.21 3100.52,-132.21"/>
</g>
<!-- ConfigsModule -->
<g id="node7" class="node">
<title>ConfigsModule</title>
<polygon fill="#8dd3c7" stroke="black" points="2132.88,-198 2129.88,-202 2108.88,-202 2105.88,-198 2029.12,-198 2029.12,-162 2132.88,-162 2132.88,-198"/>
<text text-anchor="middle" x="2081" y="-175.8" font-family="Times,serif" font-size="14.00">ConfigsModule</text>
</g>
<!-- ConfigsModule&#45;&gt;AppModule -->
<g id="edge6" class="edge">
<title>ConfigsModule&#45;&gt;AppModule</title>
<path fill="none" stroke="black" d="M2046.91,-198.21C2046.91,-198.21 2046.91,-284.58 2046.91,-284.58"/>
<polygon fill="black" stroke="black" points="2043.41,-284.58 2046.91,-294.58 2050.41,-284.58 2043.41,-284.58"/>
</g>
<!-- OrmModule -->
<g id="node8" class="node">
<title>OrmModule</title>
<polygon fill="#8dd3c7" stroke="black" points="2236.71,-198 2233.71,-202 2212.71,-202 2209.71,-198 2151.29,-198 2151.29,-162 2236.71,-162 2236.71,-198"/>
<text text-anchor="middle" x="2194" y="-175.8" font-family="Times,serif" font-size="14.00">OrmModule</text>
</g>
<!-- OrmModule&#45;&gt;AppModule -->
<g id="edge8" class="edge">
<title>OrmModule&#45;&gt;AppModule</title>
<path fill="none" stroke="black" d="M2202.99,-198.03C2202.99,-232.42 2202.99,-304 2202.99,-304 2202.99,-304 2095.77,-304 2095.77,-304"/>
<polygon fill="black" stroke="black" points="2095.77,-300.5 2085.77,-304 2095.77,-307.5 2095.77,-300.5"/>
</g>
<!-- ServiceModule&#45;&gt;AreaModule -->
<g id="edge14" class="edge">
<title>ServiceModule&#45;&gt;AreaModule</title>
<path fill="none" stroke="black" d="M2262.63,-198.22C2262.63,-218.37 2262.63,-248 2262.63,-248 2262.63,-248 2179.61,-248 2179.61,-248"/>
<polygon fill="black" stroke="black" points="2179.61,-244.5 2169.61,-248 2179.61,-251.5 2179.61,-244.5"/>
</g>
<!-- ServiceModule&#45;&gt;AuthModule -->
<g id="edge21" class="edge">
<title>ServiceModule&#45;&gt;AuthModule</title>
<path fill="none" stroke="black" d="M2312,-198.22C2312,-198.22 2312,-219.73 2312,-219.73"/>
<polygon fill="black" stroke="black" points="2308.5,-219.73 2312,-229.73 2315.5,-219.73 2308.5,-219.73"/>
</g>
<!-- ServiceModule&#45;&gt;AppModule -->
<g id="edge9" class="edge">
<title>ServiceModule&#45;&gt;AppModule</title>
<path fill="none" stroke="black" d="M2265.43,-198.21C2265.43,-234.64 2265.43,-313 2265.43,-313 2265.43,-313 2095.91,-313 2095.91,-313"/>
<polygon fill="black" stroke="black" points="2095.91,-309.5 2085.91,-313 2095.91,-316.5 2095.91,-309.5"/>
</g>
<!-- ServiceManager  -->
<g id="node34" class="node">
<title>ServiceManager </title>
<polygon fill="#fb8072" stroke="black" points="2881.73,-122 2770.27,-122 2770.27,-86 2881.73,-86 2881.73,-122"/>
<text text-anchor="middle" x="2826" y="-99.8" font-family="Times,serif" font-size="14.00">ServiceManager </text>
</g>
<!-- ServiceModule&#45;&gt;ServiceManager  -->
<g id="edge44" class="edge">
<title>ServiceModule&#45;&gt;ServiceManager </title>
<path fill="none" stroke="black" stroke-dasharray="5,2" d="M2355.9,-184C2487,-184 2826,-184 2826,-184 2826,-184 2826,-132.15 2826,-132.15"/>
<polygon fill="black" stroke="black" points="2829.5,-132.15 2826,-122.15 2822.5,-132.15 2829.5,-132.15"/>
</g>
<!-- ServiceRegistry  -->
<g id="node35" class="node">
<title>ServiceRegistry </title>
<polygon fill="#fb8072" stroke="black" points="2752.42,-122 2643.58,-122 2643.58,-86 2752.42,-86 2752.42,-122"/>
<text text-anchor="middle" x="2698" y="-99.8" font-family="Times,serif" font-size="14.00">ServiceRegistry </text>
</g>
<!-- ServiceModule&#45;&gt;ServiceRegistry  -->
<g id="edge45" class="edge">
<title>ServiceModule&#45;&gt;ServiceRegistry </title>
<path fill="none" stroke="black" stroke-dasharray="5,2" d="M2355.57,-177C2461.72,-177 2698,-177 2698,-177 2698,-177 2698,-132.04 2698,-132.04"/>
<polygon fill="black" stroke="black" points="2701.5,-132.04 2698,-122.04 2694.5,-132.04 2701.5,-132.04"/>
</g>
<!-- ServiceTokenService  -->
<g id="node36" class="node">
<title>ServiceTokenService </title>
<polygon fill="#fb8072" stroke="black" points="3038.72,-122 2899.28,-122 2899.28,-86 3038.72,-86 3038.72,-122"/>
<text text-anchor="middle" x="2969" y="-99.8" font-family="Times,serif" font-size="14.00">ServiceTokenService </text>
</g>
<!-- ServiceModule&#45;&gt;ServiceTokenService  -->
<g id="edge46" class="edge">
<title>ServiceModule&#45;&gt;ServiceTokenService </title>
<path fill="none" stroke="black" stroke-dasharray="5,2" d="M2355.73,-191C2510.95,-191 2969,-191 2969,-191 2969,-191 2969,-132.03 2969,-132.03"/>
<polygon fill="black" stroke="black" points="2972.5,-132.03 2969,-122.03 2965.5,-132.03 2972.5,-132.03"/>
</g>
<!-- AppService -->
<g id="node11" class="node">
<title>AppService</title>
<ellipse fill="#fdb462" stroke="black" cx="1948" cy="-248" rx="56.74" ry="18"/>
<text text-anchor="middle" x="1948" y="-243.8" font-family="Times,serif" font-size="14.00">AppService</text>
</g>
<!-- AppService&#45;&gt;AppModule -->
<g id="edge10" class="edge">
<title>AppService&#45;&gt;AppModule</title>
<path fill="none" stroke="black" d="M1997.09,-239C2006.12,-239 2012.77,-239 2012.77,-239 2012.77,-239 2012.77,-284.71 2012.77,-284.71"/>
<polygon fill="black" stroke="black" points="2009.27,-284.71 2012.77,-294.71 2016.27,-284.71 2009.27,-284.71"/>
</g>
<!-- ReactionRegistryModule&#45;&gt;AreaModule -->
<g id="edge13" class="edge">
<title>ReactionRegistryModule&#45;&gt;AreaModule</title>
<path fill="none" stroke="black" d="M1851.44,-180C1924.07,-180 2020.91,-180 2020.91,-180 2020.91,-180 2020.91,-248 2020.91,-248 2020.91,-248 2072.65,-248 2072.65,-248"/>
<polygon fill="black" stroke="black" points="2072.65,-251.5 2082.65,-248 2072.65,-244.5 2072.65,-251.5"/>
</g>
<!-- ReactionRegistryModule&#45;&gt;ServiceModule -->
<g id="edge42" class="edge">
<title>ReactionRegistryModule&#45;&gt;ServiceModule</title>
<path fill="none" stroke="black" d="M1773,-198.17C1773,-200.45 1773,-202 1773,-202 1773,-202 2257.03,-202 2257.03,-202 2257.03,-202 2257.03,-201.62 2257.03,-201.62"/>
<polygon fill="black" stroke="black" points="2260.53,-208.17 2257.03,-198.17 2253.53,-208.17 2260.53,-208.17"/>
</g>
<!-- ReactionRegistry  -->
<g id="node32" class="node">
<title>ReactionRegistry </title>
<polygon fill="#fb8072" stroke="black" points="778.2,-122 661.8,-122 661.8,-86 778.2,-86 778.2,-122"/>
<text text-anchor="middle" x="720" y="-99.8" font-family="Times,serif" font-size="14.00">ReactionRegistry </text>
</g>
<!-- ReactionRegistryModule&#45;&gt;ReactionRegistry  -->
<g id="edge37" class="edge">
<title>ReactionRegistryModule&#45;&gt;ReactionRegistry </title>
<path fill="none" stroke="black" stroke-dasharray="5,2" d="M1713.28,-161.81C1713.28,-158.46 1713.28,-156 1713.28,-156 1713.28,-156 720,-156 720,-156 720,-156 720,-132.19 720,-132.19"/>
<polygon fill="black" stroke="black" points="723.5,-132.19 720,-122.19 716.5,-132.19 723.5,-132.19"/>
</g>
<!-- AreaReactionService -->
<g id="node16" class="node">
<title>AreaReactionService</title>
<ellipse fill="#fdb462" stroke="black" cx="918" cy="-180" rx="93.15" ry="18"/>
<text text-anchor="middle" x="918" y="-175.8" font-family="Times,serif" font-size="14.00">AreaReactionService</text>
</g>
<!-- AreaReactionService&#45;&gt;AreaModule -->
<g id="edge18" class="edge">
<title>AreaReactionService&#45;&gt;AreaModule</title>
<path fill="none" stroke="black" d="M918,-198.15C918,-210.27 918,-224 918,-224 918,-224 2095.21,-224 2095.21,-224 2095.21,-224 2095.21,-224.58 2095.21,-224.58"/>
<polygon fill="black" stroke="black" points="2091.71,-219.81 2095.21,-229.81 2098.71,-219.81 2091.71,-219.81"/>
</g>
<!-- AreaRegistry -->
<g id="node17" class="node">
<title>AreaRegistry</title>
<ellipse fill="#fdb462" stroke="black" cx="1227" cy="-180" rx="62.54" ry="18"/>
<text text-anchor="middle" x="1227" y="-175.8" font-family="Times,serif" font-size="14.00">AreaRegistry</text>
</g>
<!-- AreaRegistry&#45;&gt;AreaModule -->
<g id="edge19" class="edge">
<title>AreaRegistry&#45;&gt;AreaModule</title>
<path fill="none" stroke="black" d="M1227,-198.11C1227,-207.9 1227,-218 1227,-218 1227,-218 2107.78,-218 2107.78,-218 2107.78,-218 2107.78,-219.86 2107.78,-219.86"/>
<polygon fill="black" stroke="black" points="2104.28,-219.86 2107.78,-229.86 2111.28,-219.86 2104.28,-219.86"/>
</g>
<!-- AreaService -->
<g id="node18" class="node">
<title>AreaService</title>
<ellipse fill="#fdb462" stroke="black" cx="1088" cy="-180" rx="58.5" ry="18"/>
<text text-anchor="middle" x="1088" y="-175.8" font-family="Times,serif" font-size="14.00">AreaService</text>
</g>
<!-- AreaService&#45;&gt;AreaModule -->
<g id="edge20" class="edge">
<title>AreaService&#45;&gt;AreaModule</title>
<path fill="none" stroke="black" d="M1088,-198.1C1088,-209.09 1088,-221 1088,-221 1088,-221 2101.49,-221 2101.49,-221 2101.49,-221 2101.49,-221.88 2101.49,-221.88"/>
<polygon fill="black" stroke="black" points="2097.99,-219.84 2101.49,-229.84 2104.99,-219.84 2097.99,-219.84"/>
</g>
<!-- UserModule -->
<g id="node19" class="node">
<title>UserModule</title>
<polygon fill="#8dd3c7" stroke="black" points="3278.98,-122 3275.98,-126 3254.98,-126 3251.98,-122 3193.02,-122 3193.02,-86 3278.98,-86 3278.98,-122"/>
<text text-anchor="middle" x="3236" y="-99.8" font-family="Times,serif" font-size="14.00">UserModule</text>
</g>
<!-- UserModule&#45;&gt;AuthModule -->
<g id="edge22" class="edge">
<title>UserModule&#45;&gt;AuthModule</title>
<path fill="none" stroke="black" d="M3243.13,-122.08C3243.13,-158.23 3243.13,-236 3243.13,-236 3243.13,-236 2365.66,-236 2365.66,-236"/>
<polygon fill="black" stroke="black" points="2365.66,-232.5 2355.66,-236 2365.66,-239.5 2365.66,-232.5"/>
</g>
<!-- UserModule&#45;&gt;ServiceModule -->
<g id="edge43" class="edge">
<title>UserModule&#45;&gt;ServiceModule</title>
<path fill="none" stroke="black" d="M3205.75,-122.12C3205.75,-124.97 3205.75,-127 3205.75,-127 3205.75,-127 2341.26,-127 2341.26,-127 2341.26,-127 2341.26,-151.76 2341.26,-151.76"/>
<polygon fill="black" stroke="black" points="2337.76,-151.76 2341.26,-161.76 2344.76,-151.76 2337.76,-151.76"/>
</g>
<!-- UserService  -->
<g id="node47" class="node">
<title>UserService </title>
<polygon fill="#fb8072" stroke="black" points="3342.9,-198 3255.1,-198 3255.1,-162 3342.9,-162 3342.9,-198"/>
<text text-anchor="middle" x="3299" y="-175.8" font-family="Times,serif" font-size="14.00">UserService </text>
</g>
<!-- UserModule&#45;&gt;UserService  -->
<g id="edge58" class="edge">
<title>UserModule&#45;&gt;UserService </title>
<path fill="none" stroke="black" stroke-dasharray="5,2" d="M3267.02,-122.01C3267.02,-122.01 3267.02,-151.85 3267.02,-151.85"/>
<polygon fill="black" stroke="black" points="3263.52,-151.85 3267.02,-161.85 3270.52,-151.85 3263.52,-151.85"/>
</g>
<!-- AuthService -->
<g id="node21" class="node">
<title>AuthService</title>
<ellipse fill="#fdb462" stroke="black" cx="4017" cy="-104" rx="59.11" ry="18"/>
<text text-anchor="middle" x="4017" y="-99.8" font-family="Times,serif" font-size="14.00">AuthService</text>
</g>
<!-- AuthService&#45;&gt;AuthModule -->
<g id="edge24" class="edge">
<title>AuthService&#45;&gt;AuthModule</title>
<path fill="none" stroke="black" d="M4017,-122.2C4017,-161.33 4017,-250 4017,-250 4017,-250 2365.86,-250 2365.86,-250"/>
<polygon fill="black" stroke="black" points="2365.86,-246.5 2355.86,-250 2365.86,-253.5 2365.86,-246.5"/>
</g>
<!-- ElementService -->
<g id="node22" class="node">
<title>ElementService</title>
<ellipse fill="#fdb462" stroke="black" cx="4166" cy="-104" rx="72.35" ry="18"/>
<text text-anchor="middle" x="4166" y="-99.8" font-family="Times,serif" font-size="14.00">ElementService</text>
</g>
<!-- ElementService&#45;&gt;ElementModule -->
<g id="edge35" class="edge">
<title>ElementService&#45;&gt;ElementModule</title>
<path fill="none" stroke="black" d="M4141.94,-121.34C4141.94,-123.52 4141.94,-125 4141.94,-125 4141.94,-125 375.72,-125 375.72,-125 375.72,-125 375.72,-124.71 375.72,-124.71"/>
<polygon fill="black" stroke="black" points="379.22,-132.08 375.72,-122.08 372.22,-132.08 379.22,-132.08"/>
</g>
<!-- ElementService&#45;&gt;AuthModule -->
<g id="edge25" class="edge">
<title>ElementService&#45;&gt;AuthModule</title>
<path fill="none" stroke="black" d="M4190.06,-121.09C4190.06,-160.23 4190.06,-253 4190.06,-253 4190.06,-253 2365.66,-253 2365.66,-253"/>
<polygon fill="black" stroke="black" points="2365.66,-249.5 2355.66,-253 2365.66,-256.5 2365.66,-249.5"/>
</g>
<!-- GithubStrategy -->
<g id="node23" class="node">
<title>GithubStrategy</title>
<ellipse fill="#fdb462" stroke="black" cx="4326" cy="-104" rx="70.08" ry="18"/>
<text text-anchor="middle" x="4326" y="-99.8" font-family="Times,serif" font-size="14.00">GithubStrategy</text>
</g>
<!-- GithubStrategy&#45;&gt;AuthModule -->
<g id="edge26" class="edge">
<title>GithubStrategy&#45;&gt;AuthModule</title>
<path fill="none" stroke="black" d="M4326,-122.21C4326,-162.38 4326,-255 4326,-255 4326,-255 2365.94,-255 2365.94,-255"/>
<polygon fill="black" stroke="black" points="2365.94,-251.5 2355.94,-255 2365.94,-258.5 2365.94,-251.5"/>
</g>
<!-- GoogleStrategy -->
<g id="node24" class="node">
<title>GoogleStrategy</title>
<ellipse fill="#fdb462" stroke="black" cx="4634" cy="-104" rx="71.79" ry="18"/>
<text text-anchor="middle" x="4634" y="-99.8" font-family="Times,serif" font-size="14.00">GoogleStrategy</text>
</g>
<!-- GoogleStrategy&#45;&gt;AuthModule -->
<g id="edge27" class="edge">
<title>GoogleStrategy&#45;&gt;AuthModule</title>
<path fill="none" stroke="black" d="M4634,-122.01C4634,-163.25 4634,-261 4634,-261 4634,-261 2365.8,-261 2365.8,-261"/>
<polygon fill="black" stroke="black" points="2365.8,-257.5 2355.8,-261 2365.8,-264.5 2365.8,-257.5"/>
</g>
<!-- JwtStrategy -->
<g id="node25" class="node">
<title>JwtStrategy</title>
<ellipse fill="#fdb462" stroke="black" cx="4780" cy="-104" rx="56.76" ry="18"/>
<text text-anchor="middle" x="4780" y="-99.8" font-family="Times,serif" font-size="14.00">JwtStrategy</text>
</g>
<!-- JwtStrategy&#45;&gt;AuthModule -->
<g id="edge28" class="edge">
<title>JwtStrategy&#45;&gt;AuthModule</title>
<path fill="none" stroke="black" d="M4780,-122.04C4780,-163.89 4780,-264 4780,-264 4780,-264 2365.62,-264 2365.62,-264"/>
<polygon fill="black" stroke="black" points="2365.62,-260.5 2355.62,-264 2365.62,-267.5 2365.62,-260.5"/>
</g>
<!-- LocalStrategy -->
<g id="node26" class="node">
<title>LocalStrategy</title>
<ellipse fill="#fdb462" stroke="black" cx="4479" cy="-104" rx="65.41" ry="18"/>
<text text-anchor="middle" x="4479" y="-99.8" font-family="Times,serif" font-size="14.00">LocalStrategy</text>
</g>
<!-- LocalStrategy&#45;&gt;AuthModule -->
<g id="edge29" class="edge">
<title>LocalStrategy&#45;&gt;AuthModule</title>
<path fill="none" stroke="black" d="M4479,-122.27C4479,-163.06 4479,-258 4479,-258 4479,-258 2365.78,-258 2365.78,-258"/>
<polygon fill="black" stroke="black" points="2365.78,-254.5 2355.78,-258 2365.78,-261.5 2365.78,-254.5"/>
</g>
<!-- MsStrategy -->
<g id="node27" class="node">
<title>MsStrategy</title>
<ellipse fill="#fdb462" stroke="black" cx="3564" cy="-104" rx="55.61" ry="18"/>
<text text-anchor="middle" x="3564" y="-99.8" font-family="Times,serif" font-size="14.00">MsStrategy</text>
</g>
<!-- MsStrategy&#45;&gt;AuthModule -->
<g id="edge30" class="edge">
<title>MsStrategy&#45;&gt;AuthModule</title>
<path fill="none" stroke="black" d="M3564,-122.04C3564,-159.45 3564,-242 3564,-242 3564,-242 2365.83,-242 2365.83,-242"/>
<polygon fill="black" stroke="black" points="2365.83,-238.5 2355.83,-242 2365.83,-245.5 2365.83,-238.5"/>
</g>
<!-- ServiceTokenService -->
<g id="node28" class="node">
<title>ServiceTokenService</title>
<ellipse fill="#fdb462" stroke="black" cx="3397" cy="-104" rx="93.74" ry="18"/>
<text text-anchor="middle" x="3397" y="-99.8" font-family="Times,serif" font-size="14.00">ServiceTokenService</text>
</g>
<!-- ServiceTokenService&#45;&gt;AuthModule -->
<g id="edge31" class="edge">
<title>ServiceTokenService&#45;&gt;AuthModule</title>
<path fill="none" stroke="black" d="M3416.79,-121.65C3416.79,-158.24 3416.79,-239 3416.79,-239 3416.79,-239 2365.65,-239 2365.65,-239"/>
<polygon fill="black" stroke="black" points="2365.65,-235.5 2355.65,-239 2365.65,-242.5 2365.65,-235.5"/>
</g>
<!-- ServiceTokenService&#45;&gt;ServiceModule -->
<g id="edge55" class="edge">
<title>ServiceTokenService&#45;&gt;ServiceModule</title>
<path fill="none" stroke="black" d="M3323.17,-115.33C3323.17,-121.94 3323.17,-129 3323.17,-129 3323.17,-129 2348.51,-129 2348.51,-129 2348.51,-129 2348.51,-151.88 2348.51,-151.88"/>
<polygon fill="black" stroke="black" points="2345.01,-151.88 2348.51,-161.88 2352.01,-151.88 2345.01,-151.88"/>
</g>
<!-- SpotifyStrategy -->
<g id="node29" class="node">
<title>SpotifyStrategy</title>
<ellipse fill="#fdb462" stroke="black" cx="3709" cy="-104" rx="71.81" ry="18"/>
<text text-anchor="middle" x="3709" y="-99.8" font-family="Times,serif" font-size="14.00">SpotifyStrategy</text>
</g>
<!-- SpotifyStrategy&#45;&gt;AuthModule -->
<g id="edge32" class="edge">
<title>SpotifyStrategy&#45;&gt;AuthModule</title>
<path fill="none" stroke="black" d="M3709,-122.02C3709,-159.83 3709,-244 3709,-244 3709,-244 2365.73,-244 2365.73,-244"/>
<polygon fill="black" stroke="black" points="2365.73,-240.5 2355.73,-244 2365.73,-247.5 2365.73,-240.5"/>
</g>
<!-- TwitchStrategy -->
<g id="node30" class="node">
<title>TwitchStrategy</title>
<ellipse fill="#fdb462" stroke="black" cx="3869" cy="-104" rx="70.64" ry="18"/>
<text text-anchor="middle" x="3869" y="-99.8" font-family="Times,serif" font-size="14.00">TwitchStrategy</text>
</g>
<!-- TwitchStrategy&#45;&gt;AuthModule -->
<g id="edge33" class="edge">
<title>TwitchStrategy&#45;&gt;AuthModule</title>
<path fill="none" stroke="black" d="M3869,-122.11C3869,-160.59 3869,-247 3869,-247 3869,-247 2365.68,-247 2365.68,-247"/>
<polygon fill="black" stroke="black" points="2365.68,-243.5 2355.68,-247 2365.68,-250.5 2365.68,-243.5"/>
</g>
<!-- ReactionRegistry -->
<g id="node33" class="node">
<title>ReactionRegistry</title>
<ellipse fill="#fdb462" stroke="black" cx="560" cy="-104" rx="78.17" ry="18"/>
<text text-anchor="middle" x="560" y="-99.8" font-family="Times,serif" font-size="14.00">ReactionRegistry</text>
</g>
<!-- ReactionRegistry&#45;&gt;ReactionRegistryModule -->
<g id="edge38" class="edge">
<title>ReactionRegistry&#45;&gt;ReactionRegistryModule</title>
<path fill="none" stroke="black" d="M560,-122.28C560,-137.95 560,-158 560,-158 560,-158 1707.06,-158 1707.06,-158 1707.06,-158 1707.06,-158.38 1707.06,-158.38"/>
<polygon fill="black" stroke="black" points="1703.56,-151.83 1707.06,-161.83 1710.56,-151.83 1703.56,-151.83"/>
</g>
<!-- DictDataGithubService -->
<g id="node37" class="node">
<title>DictDataGithubService</title>
<ellipse fill="#fdb462" stroke="black" cx="1153" cy="-104" rx="101.84" ry="18"/>
<text text-anchor="middle" x="1153" y="-99.8" font-family="Times,serif" font-size="14.00">DictDataGithubService</text>
</g>
<!-- DictDataGithubService&#45;&gt;ServiceModule -->
<g id="edge47" class="edge">
<title>DictDataGithubService&#45;&gt;ServiceModule</title>
<path fill="none" stroke="black" d="M1209.58,-119.16C1209.58,-131.19 1209.58,-146 1209.58,-146 1209.58,-146 2283.24,-146 2283.24,-146 2283.24,-146 2283.24,-151.81 2283.24,-151.81"/>
<polygon fill="black" stroke="black" points="2279.74,-151.81 2283.24,-161.81 2286.74,-151.81 2279.74,-151.81"/>
</g>
<!-- DictEmailsGmailService -->
<g id="node38" class="node">
<title>DictEmailsGmailService</title>
<ellipse fill="#fdb462" stroke="black" cx="926" cy="-104" rx="107.65" ry="18"/>
<text text-anchor="middle" x="926" y="-99.8" font-family="Times,serif" font-size="14.00">DictEmailsGmailService</text>
</g>
<!-- DictEmailsGmailService&#45;&gt;ServiceModule -->
<g id="edge48" class="edge">
<title>DictEmailsGmailService&#45;&gt;ServiceModule</title>
<path fill="none" stroke="black" d="M1020.16,-112.9C1020.16,-125.76 1020.16,-148 1020.16,-148 1020.16,-148 2275.99,-148 2275.99,-148 2275.99,-148 2275.99,-151.76 2275.99,-151.76"/>
<polygon fill="black" stroke="black" points="2272.49,-151.76 2275.99,-161.76 2279.49,-151.76 2272.49,-151.76"/>
</g>
<!-- DictEmailsOutlookService -->
<g id="node39" class="node">
<title>DictEmailsOutlookService</title>
<ellipse fill="#fdb462" stroke="black" cx="2505" cy="-104" rx="115.18" ry="18"/>
<text text-anchor="middle" x="2505" y="-99.8" font-family="Times,serif" font-size="14.00">DictEmailsOutlookService</text>
</g>
<!-- DictEmailsOutlookService&#45;&gt;ServiceModule -->
<g id="edge49" class="edge">
<title>DictEmailsOutlookService&#45;&gt;ServiceModule</title>
<path fill="none" stroke="black" d="M2505,-122.03C2505,-141.58 2505,-170 2505,-170 2505,-170 2365.73,-170 2365.73,-170"/>
<polygon fill="black" stroke="black" points="2365.73,-166.5 2355.73,-170 2365.73,-173.5 2365.73,-166.5"/>
</g>
<!-- GithubService -->
<g id="node40" class="node">
<title>GithubService</title>
<ellipse fill="#fdb462" stroke="black" cx="2305" cy="-104" rx="66.63" ry="18"/>
<text text-anchor="middle" x="2305" y="-99.8" font-family="Times,serif" font-size="14.00">GithubService</text>
</g>
<!-- GithubService&#45;&gt;ServiceModule -->
<g id="edge50" class="edge">
<title>GithubService&#45;&gt;ServiceModule</title>
<path fill="none" stroke="black" d="M2334.01,-120.49C2334.01,-120.49 2334.01,-151.95 2334.01,-151.95"/>
<polygon fill="black" stroke="black" points="2330.51,-151.95 2334.01,-161.95 2337.51,-151.95 2330.51,-151.95"/>
</g>
<!-- GoogleService -->
<g id="node41" class="node">
<title>GoogleService</title>
<ellipse fill="#fdb462" stroke="black" cx="2152" cy="-104" rx="68.34" ry="18"/>
<text text-anchor="middle" x="2152" y="-99.8" font-family="Times,serif" font-size="14.00">GoogleService</text>
</g>
<!-- GoogleService&#45;&gt;ServiceModule -->
<g id="edge51" class="edge">
<title>GoogleService&#45;&gt;ServiceModule</title>
<path fill="none" stroke="black" d="M2185.91,-119.86C2185.91,-126.63 2185.91,-133 2185.91,-133 2185.91,-133 2326.76,-133 2326.76,-133 2326.76,-133 2326.76,-151.96 2326.76,-151.96"/>
<polygon fill="black" stroke="black" points="2323.26,-151.96 2326.76,-161.96 2330.26,-151.96 2323.26,-151.96"/>
</g>
<!-- MicrosoftService -->
<g id="node42" class="node">
<title>MicrosoftService</title>
<ellipse fill="#fdb462" stroke="black" cx="1988" cy="-104" rx="78.14" ry="18"/>
<text text-anchor="middle" x="1988" y="-99.8" font-family="Times,serif" font-size="14.00">MicrosoftService</text>
</g>
<!-- MicrosoftService&#45;&gt;ServiceModule -->
<g id="edge52" class="edge">
<title>MicrosoftService&#45;&gt;ServiceModule</title>
<path fill="none" stroke="black" d="M2047.57,-115.9C2047.57,-124.64 2047.57,-135 2047.57,-135 2047.57,-135 2319.5,-135 2319.5,-135 2319.5,-135 2319.5,-151.96 2319.5,-151.96"/>
<polygon fill="black" stroke="black" points="2316,-151.96 2319.5,-161.96 2323,-151.96 2316,-151.96"/>
</g>
<!-- ServiceManager -->
<g id="node43" class="node">
<title>ServiceManager</title>
<ellipse fill="#fdb462" stroke="black" cx="1818" cy="-104" rx="74.12" ry="18"/>
<text text-anchor="middle" x="1818" y="-99.8" font-family="Times,serif" font-size="14.00">ServiceManager</text>
</g>
<!-- ServiceManager&#45;&gt;ServiceModule -->
<g id="edge53" class="edge">
<title>ServiceManager&#45;&gt;ServiceModule</title>
<path fill="none" stroke="black" d="M1871.38,-116.66C1871.38,-125.97 1871.38,-137 1871.38,-137 1871.38,-137 2312.25,-137 2312.25,-137 2312.25,-137 2312.25,-151.51 2312.25,-151.51"/>
<polygon fill="black" stroke="black" points="2308.75,-151.51 2312.25,-161.51 2315.75,-151.51 2308.75,-151.51"/>
</g>
<!-- ServiceRegistry -->
<g id="node44" class="node">
<title>ServiceRegistry</title>
<ellipse fill="#fdb462" stroke="black" cx="1653" cy="-104" rx="72.93" ry="18"/>
<text text-anchor="middle" x="1653" y="-99.8" font-family="Times,serif" font-size="14.00">ServiceRegistry</text>
</g>
<!-- ServiceRegistry&#45;&gt;ServiceModule -->
<g id="edge54" class="edge">
<title>ServiceRegistry&#45;&gt;ServiceModule</title>
<path fill="none" stroke="black" d="M1719.5,-111.42C1719.5,-121.7 1719.5,-139 1719.5,-139 1719.5,-139 2305,-139 2305,-139 2305,-139 2305,-151.9 2305,-151.9"/>
<polygon fill="black" stroke="black" points="2301.5,-151.9 2305,-161.9 2308.5,-151.9 2301.5,-151.9"/>
</g>
<!-- SpotifyService -->
<g id="node45" class="node">
<title>SpotifyService</title>
<ellipse fill="#fdb462" stroke="black" cx="1494" cy="-104" rx="68.36" ry="18"/>
<text text-anchor="middle" x="1494" y="-99.8" font-family="Times,serif" font-size="14.00">SpotifyService</text>
</g>
<!-- SpotifyService&#45;&gt;ServiceModule -->
<g id="edge56" class="edge">
<title>SpotifyService&#45;&gt;ServiceModule</title>
<path fill="none" stroke="black" d="M1515,-121.2C1515,-130.86 1515,-141 1515,-141 1515,-141 2297.75,-141 2297.75,-141 2297.75,-141 2297.75,-151.87 2297.75,-151.87"/>
<polygon fill="black" stroke="black" points="2294.25,-151.87 2297.75,-161.87 2301.25,-151.87 2294.25,-151.87"/>
</g>
<!-- TwitchService -->
<g id="node46" class="node">
<title>TwitchService</title>
<ellipse fill="#fdb462" stroke="black" cx="1340" cy="-104" rx="67.19" ry="18"/>
<text text-anchor="middle" x="1340" y="-99.8" font-family="Times,serif" font-size="14.00">TwitchService</text>
</g>
<!-- TwitchService&#45;&gt;ServiceModule -->
<g id="edge57" class="edge">
<title>TwitchService&#45;&gt;ServiceModule</title>
<path fill="none" stroke="black" d="M1360.56,-121.2C1360.56,-132.04 1360.56,-144 1360.56,-144 1360.56,-144 2290.5,-144 2290.5,-144 2290.5,-144 2290.5,-151.58 2290.5,-151.58"/>
<polygon fill="black" stroke="black" points="2287,-151.58 2290.5,-161.58 2294,-151.58 2287,-151.58"/>
</g>
<!-- UserService -->
<g id="node48" class="node">
<title>UserService</title>
<ellipse fill="#fdb462" stroke="black" cx="3173" cy="-180" rx="58.44" ry="18"/>
<text text-anchor="middle" x="3173" y="-175.8" font-family="Times,serif" font-size="14.00">UserService</text>
</g>
<!-- UserService&#45;&gt;UserModule -->
<g id="edge59" class="edge">
<title>UserService&#45;&gt;UserModule</title>
<path fill="none" stroke="black" d="M3218.48,-168.46C3218.48,-168.46 3218.48,-132.17 3218.48,-132.17"/>
<polygon fill="black" stroke="black" points="3221.98,-132.17 3218.48,-122.17 3214.98,-132.17 3221.98,-132.17"/>
</g>
</g>
</svg>
